/* XPM */
static char * edit_cut_xpm[] = {
"48 48 280 2",
"  	c None",
". 	c #888A84",
"+ 	c #898B85",
"@ 	c #888A85",
"# 	c #8C8D8A",
"$ 	c #989A95",
"% 	c #8B8D8A",
"& 	c #8D8F89",
"* 	c #BCBCB8",
"= 	c #949690",
"- 	c #90928D",
"; 	c #ECEBE9",
"> 	c #8D8F8A",
", 	c #F4F3F2",
"' 	c #A3A4A0",
") 	c #CDCCC9",
"! 	c #F6F5F4",
"~ 	c #B5B6B1",
"{ 	c #C5C5C1",
"] 	c #F6F5F3",
"^ 	c #E0DFDC",
"/ 	c #969792",
"( 	c #F2F1F0",
"_ 	c #F4F3F1",
": 	c #DBDAD7",
"< 	c #8D8E88",
"[ 	c #8E908A",
"} 	c #DFDEDB",
"| 	c #F3F2F1",
"1 	c #F5F4F3",
"2 	c #A3A49F",
"3 	c #8A8C89",
"4 	c #CECECA",
"5 	c #F2F1EF",
"6 	c #DDDDD9",
"7 	c #8E8F8B",
"8 	c #8D908B",
"9 	c #DAD9D6",
"0 	c #F2F1EE",
"a 	c #F3F2F0",
"b 	c #E0E0DD",
"c 	c #959792",
"d 	c #F2F2F0",
"e 	c #F1F0EE",
"f 	c #ECEBE8",
"g 	c #DCDAD6",
"h 	c #8D8F88",
"i 	c #DEDCD8",
"j 	c #E8E7E3",
"k 	c #F0EFED",
"l 	c #A4A5A2",
"m 	c #8C8F89",
"n 	c #CFCFCC",
"o 	c #F0EEEC",
"p 	c #DEDBD6",
"q 	c #E3E1DE",
"r 	c #8B8D87",
"s 	c #E4E3DF",
"t 	c #DBD8D3",
"u 	c #EEECEA",
"v 	c #E1E0DE",
"w 	c #969791",
"x 	c #91938F",
"y 	c #E6E4E0",
"z 	c #D9D6D0",
"A 	c #8A8C87",
"B 	c #8B8C87",
"C 	c #E2E0DD",
"D 	c #DAD7D2",
"E 	c #E1DFDA",
"F 	c #A5A7A2",
"G 	c #8B8E89",
"H 	c #EEECE9",
"I 	c #DAD7D1",
"J 	c #DCD9D4",
"K 	c #D9D7D3",
"L 	c #8E908B",
"M 	c #8E8F8A",
"N 	c #D2D1CD",
"O 	c #EAE9E5",
"P 	c #E1E1DE",
"Q 	c #969692",
"R 	c #C4C3BE",
"S 	c #8C8E89",
"T 	c #B5B5B1",
"U 	c #E4E2DD",
"V 	c #DDDAD5",
"W 	c #F0EFEC",
"X 	c #A4A6A1",
"Y 	c #8E8E89",
"Z 	c #D1D1CE",
"` 	c #EAE8E5",
" .	c #949590",
"..	c #8B8D89",
"+.	c #E1DFDC",
"@.	c #DCDAD4",
"#.	c #E6E4DF",
"$.	c #E2E1DE",
"%.	c #92948E",
"&.	c #F0F0ED",
"*.	c #E1DFDB",
"=.	c #C8C8C4",
"-.	c #8D8E8A",
";.	c #B7B7B2",
">.	c #E5E3DF",
",.	c #A6A7A2",
"'.	c #E3E2DE",
").	c #91938D",
"!.	c #8B8D88",
"~.	c #D8D7D3",
"{.	c #E0DED9",
"].	c #E1DEDA",
"^.	c #959591",
"/.	c #93958F",
"(.	c #EEEDEB",
"_.	c #AFAEAA",
":.	c #959892",
"<.	c #E4E2DE",
"[.	c #A2A39E",
"}.	c #91938E",
"|.	c #D2D2CF",
"1.	c #E3E0DC",
"2.	c #CECDC9",
"3.	c #8C8E87",
"4.	c #B1B2AC",
"5.	c #D9D6D1",
"6.	c #EDEBEA",
"7.	c #C0C0BD",
"8.	c #939490",
"9.	c #EBE9E6",
"0.	c #8F908A",
"a.	c #D7D5D1",
"b.	c #A5A5A2",
"c.	c #D3D3CF",
"d.	c #DBD8D2",
"e.	c #E7E5E1",
"f.	c #90918B",
"g.	c #DFDDDA",
"h.	c #DDDBD5",
"i.	c #BDBAB6",
"j.	c #979894",
"k.	c #C5C3BE",
"l.	c #A0A09C",
"m.	c #A0A09A",
"n.	c #C5C4C1",
"o.	c #BEBFBC",
"p.	c #CECCC6",
"q.	c #E3E1DD",
"r.	c #D4D3CE",
"s.	c #A6A7A3",
"t.	c #959691",
"u.	c #F9F9F9",
"v.	c #EFEFEE",
"w.	c #9B9C97",
"x.	c #DDDBD7",
"y.	c #BEBEBB",
"z.	c #C5C5C3",
"A.	c #DADBD9",
"B.	c #959793",
"C.	c #959692",
"D.	c #8F918C",
"E.	c #A70202",
"F.	c #A50000",
"G.	c #A40000",
"H.	c #A0514F",
"I.	c #B4B4AF",
"J.	c #A5A5A1",
"K.	c #9C9D98",
"L.	c #B6B6B2",
"M.	c #9A4542",
"N.	c #A60101",
"O.	c #BA1A1A",
"P.	c #DD3F3F",
"Q.	c #ED5151",
"R.	c #EE5151",
"S.	c #E74646",
"T.	c #AD0F0F",
"U.	c #CB7E7C",
"V.	c #AEAEAA",
"W.	c #A8A9A4",
"X.	c #C97170",
"Y.	c #AB0C0C",
"Z.	c #C52727",
"`.	c #F48888",
" +	c #C82424",
".+	c #A80707",
"++	c #A70505",
"@+	c #A70404",
"#+	c #F14343",
"$+	c #E94949",
"%+	c #B01111",
"&+	c #AF5150",
"*+	c #B85B5A",
"=+	c #F08484",
"-+	c #ED4141",
";+	c #A50303",
">+	c #A60404",
",+	c #A50404",
"'+	c #A70707",
")+	c #BC1D1D",
"!+	c #E74B4B",
"~+	c #B00F0F",
"{+	c #EC4D4D",
"]+	c #AF0C0C",
"^+	c #A70101",
"/+	c #EF2929",
"(+	c #F24B4B",
"_+	c #DA3838",
":+	c #A40808",
"<+	c #A50909",
"[+	c #E92626",
"}+	c #AC0A0A",
"|+	c #EC4E4E",
"1+	c #A80303",
"2+	c #D63737",
"3+	c #D73131",
"4+	c #A80202",
"5+	c #F03535",
"6+	c #EF4F4F",
"7+	c #AB0A0A",
"8+	c #E93131",
"9+	c #E44646",
"0+	c #C01818",
"a+	c #F14949",
"b+	c #D02828",
"c+	c #A60303",
"d+	c #EB4545",
"e+	c #A50101",
"f+	c #ED5050",
"g+	c #AC0808",
"h+	c #F25353",
"i+	c #AB0606",
"j+	c #EC4F4F",
"k+	c #A60505",
"l+	c #A60202",
"m+	c #E64848",
"n+	c #C01616",
"o+	c #BA1B1B",
"p+	c #EC4646",
"q+	c #B31717",
"r+	c #DC3C3C",
"s+	c #D82E2E",
"t+	c #DA3737",
"u+	c #D93232",
"v+	c #D73434",
"w+	c #B91919",
"x+	c #EF4B4B",
"y+	c #D11B1B",
"z+	c #B80B0B",
"A+	c #B00606",
"B+	c #D21E1E",
"C+	c #F25050",
"D+	c #B51313",
"E+	c #B41313",
"F+	c #D31F1F",
"G+	c #B20808",
"H+	c #AA0404",
"I+	c #BC0D0D",
"J+	c #D31C1C",
"K+	c #BA1919",
"L+	c #DA3939",
"M+	c #F24D4D",
"N+	c #F03737",
"O+	c #F03030",
"P+	c #F03939",
"Q+	c #CA2929",
"R+	c #A40101",
"S+	c #C72525",
"T+	c #DD3E3E",
"U+	c #E84C4C",
"V+	c #DB3D3D",
"W+	c #BE1F1F",
"X+	c #A30101",
"Y+	c #950000",
"Z+	c #A20202",
"`+	c #9D0202",
" @	c #840000",
".@	c #8C0000",
"+@	c #A00202",
"@@	c #8E0000",
"                                                                                                ",
"                                                                                                ",
"                                                                                                ",
"                                                                                                ",
"                                                                                                ",
"                                                                                                ",
"                                                                                                ",
"                                .                               +                               ",
"                                @                             # $ %                             ",
"                              & * =                           - ; >                             ",
"                              = , '                         % ) ! ~                             ",
"                              { ] ^ /                       - ( _ : <                           ",
"                            [ } | 1 2                     3 4 , 5 6 7                           ",
"                            8 9 0 a b c                   - d e f g >                           ",
"                            h i j k 1 l                 m n , o p q r                           ",
"                            r s t u a v w               x a e y z y A                           ",
"                            B C D E k 1 F             G n , H I J K L                           ",
"                            M N p z O a P Q           x | e E z E R S                           ",
"                              T U z V W 1 X         Y Z _ ` z I y  .                            ",
"                              ..+.@.z #.a $.c       %.| &.@.z *.=.-.                            ",
"                              ..;.>.z I u 1 ,.    7 Z _ >.z V '.).                              ",
"                                !.~.{.z ].a $.^.  /.| (.I I y _.S                               ",
"                                  :.<.J z O 1 [.}.|._ {.z 1.2.G                                 ",
"                                  3.4.y 5.@.6.7.8.| 9.z p *.0.                                  ",
"                                    G 2.*.z a.b.c._ J d.e.X &                                   ",
"                                      f.g.h.i.j._ y I >.k.S                                     ",
"                                        l.>.m.n.o.p.q.r...                                      ",
"                                        m s.t.u.v.w.x.[                                         ",
"                                          -.y.z.A.B.C.D.                                        ",
"                              E.F.F.G.F.G.H.( I.J.K.L.M.G.F.G.F.F.E.                            ",
"                          N.O.P.Q.Q.Q.R.S.T.U.y V.W.X.Y.S.R.Q.Q.Q.P.O.N.                        ",
"                        E.Z.`. +.+++++@+#+$+%+&+> *+%+=+-+;+>+,+'+)+!+Z.E.                      ",
"                        ~+{+]+^+      G./+(+_+:+  <+_+(+[+G.      F.}+|+~+                      ",
"                      1+2+3+4+        G.5+6+7+      Y.6+8+F.        1+3+2+1+                    ",
"                      E.9+0+          G.a+b+c+      @+b+d+e+          0+9+E.                    ",
"                      G.f+g+          >+h+i+          i+j+k+          g+f+G.                    ",
"                      l+m+n+          o+p+F.          F.p+q+          n+m+l+                    ",
"                      4+r+s+E.      N.t+u+4+          4+u+v+^+      l+s+r+4+                    ",
"                        w+x+y+z+4+A+B+C+D+              E+C+F+G+H+I+J+x+K+                      ",
"                        e+L+M+N+O+P+M+Q+R+              R+Q+M+P+O+N+M+L+R+                      ",
"                          e+S+T+U+V+W+X+                  X+W+V+U+T+S+R+                        ",
"                            Y+Z+X+`+ @                      .@+@X++@@@                          ",
"                                                                                                ",
"                                                                                                ",
"                                                                                                ",
"                                                                                                ",
"                                                                                                ",
"                                                                                                "};
