/* XPM */
static char * edit_paste_xpm[] = {
"48 48 365 2",
"  	c None",
". 	c #6D6D6D",
"+ 	c #6C6C6C",
"@ 	c #C4C4C4",
"# 	c #E2E2E2",
"$ 	c #E4E4E4",
"% 	c #E3E3E3",
"& 	c #C1C1C1",
"* 	c #656565",
"= 	c #D9D9D9",
"- 	c #F3F3F3",
"; 	c #F9F9F9",
"> 	c #EFEFEF",
", 	c #D8D8D8",
"' 	c #636363",
") 	c #606062",
"! 	c #CECECF",
"~ 	c #E3E4E4",
"{ 	c #C5C6C7",
"] 	c #606060",
"^ 	c #8D6527",
"/ 	c #8E6629",
"( 	c #7E5B24",
"_ 	c #71695E",
": 	c #C0C0C2",
"< 	c #C9C9CB",
"[ 	c #BDBDBF",
"} 	c #71695D",
"| 	c #DBB477",
"1 	c #E8C389",
"2 	c #D5B37E",
"3 	c #8D816E",
"4 	c #959697",
"5 	c #A2A3A4",
"6 	c #A3A3A5",
"7 	c #969799",
"8 	c #8D826F",
"9 	c #D3B17D",
"0 	c #DAB477",
"a 	c #8C6527",
"b 	c #90682B",
"c 	c #E5BC7B",
"d 	c #E2B369",
"e 	c #8F7A58",
"f 	c #BCBDBE",
"g 	c #CDCECF",
"h 	c #BEBEBF",
"i 	c #8E7958",
"j 	c #BB965B",
"k 	c #827159",
"l 	c #7D705A",
"m 	c #827359",
"n 	c #B6925A",
"o 	c #E5BC7A",
"p 	c #DCAE66",
"q 	c #D6AA64",
"r 	c #D9B274",
"s 	c #E4BB7A",
"t 	c #E1B269",
"u 	c #E1B268",
"v 	c #D6A963",
"w 	c #9B825D",
"x 	c #99886E",
"y 	c #9A8B75",
"z 	c #7B705D",
"A 	c #727272",
"B 	c #8F6829",
"C 	c #E3BA79",
"D 	c #E0B168",
"E 	c #D5A863",
"F 	c #998971",
"G 	c #FEFEFE",
"H 	c #FFFFFF",
"I 	c #757575",
"J 	c #E3BA78",
"K 	c #DFB167",
"L 	c #DFB067",
"M 	c #D4A762",
"N 	c #988971",
"O 	c #F5F5F5",
"P 	c #F1F1F1",
"Q 	c #8F6729",
"R 	c #E2B977",
"S 	c #DEB066",
"T 	c #DEAF66",
"U 	c #D3A661",
"V 	c #988871",
"W 	c #F4F4F4",
"X 	c #E1B775",
"Y 	c #DDAF65",
"Z 	c #D2A560",
"` 	c #97886F",
" .	c #F0F0F0",
"..	c #8E6729",
"+.	c #E0B775",
"@.	c #DCAE65",
"#.	c #DCAE64",
"$.	c #C9A75B",
"%.	c #B79B52",
"&.	c #8F8568",
"*.	c #8E6728",
"=.	c #DFB674",
"-.	c #DBAD64",
";.	c #B59F52",
">.	c #73983A",
",.	c #818A39",
"'.	c #91846B",
").	c #F2F2F2",
"!.	c #EEEEEE",
"~.	c #747474",
"{.	c #8E6528",
"].	c #DEB473",
"^.	c #DAAC63",
"/.	c #C1A257",
"(.	c #749B3B",
"_.	c #7F973D",
":.	c #C69F5A",
"<.	c #95866E",
"[.	c #EDEDED",
"}.	c #DDB472",
"|.	c #D9AB62",
"1.	c #D6A960",
"2.	c #849A47",
"3.	c #7FB054",
"4.	c #AD9A4C",
"5.	c #CEA25D",
"6.	c #94856D",
"7.	c #ECECEC",
"8.	c #E4E7E3",
"9.	c #8C6528",
"0.	c #DCB371",
"a.	c #D8AA61",
"b.	c #B19B4E",
"c.	c #98BC76",
"d.	c #96BC6F",
"e.	c #BB9E53",
"f.	c #CDA15C",
"g.	c #EBEBEB",
"h.	c #89AC7F",
"i.	c #D2DAD0",
"j.	c #DBB170",
"k.	c #D7A961",
"l.	c #8B9741",
"m.	c #C7E1AF",
"n.	c #9FC778",
"o.	c #A7984A",
"p.	c #CCA05C",
"q.	c #93846D",
"r.	c #73A557",
"s.	c #78AA58",
"t.	c #BACBB4",
"u.	c #EAEAEA",
"v.	c #8C6427",
"w.	c #DAB170",
"x.	c #D6A860",
"y.	c #72963C",
"z.	c #DAF1BC",
"A.	c #CEE8B0",
"B.	c #739535",
"C.	c #BE9A55",
"D.	c #92846C",
"E.	c #6FA353",
"F.	c #CDEBAA",
"G.	c #7CB154",
"H.	c #9BB890",
"I.	c #E5E7E4",
"J.	c #D9B06F",
"K.	c #D5A75F",
"L.	c #D3A75E",
"M.	c #6A9434",
"N.	c #D8F3B5",
"O.	c #CCF09E",
"P.	c #A4D179",
"Q.	c #6D8F2F",
"R.	c #7B7B58",
"S.	c #E9EBE9",
"T.	c #E9E9E9",
"U.	c #6DA150",
"V.	c #DCF4BF",
"W.	c #DAF2BC",
"X.	c #8DC161",
"Y.	c #81AB6C",
"Z.	c #D6DCD4",
"`.	c #8B6427",
" +	c #D8AE6D",
".+	c #D4A65E",
"++	c #698F2E",
"@+	c #CFEBB1",
"#+	c #9FDE54",
"$+	c #CAEDA1",
"%+	c #B6DD8F",
"&+	c #71A745",
"*+	c #70A457",
"=+	c #82AC6E",
"-+	c #649E43",
";+	c #D3F0B3",
">+	c #A2DF5A",
",+	c #CAEDA2",
"'+	c #A2D078",
")+	c #70A553",
"!+	c #BFCDBB",
"~+	c #E8E8E8",
"{+	c #717171",
"]+	c #D7AD6D",
"^+	c #D3A55E",
"/+	c #D2A55E",
"(+	c #D2A55D",
"_+	c #839037",
":+	c #9BCE6B",
"<+	c #A8DE6B",
"[+	c #8FD441",
"}+	c #A4DC64",
"|+	c #BAE589",
"1+	c #BFE496",
"2+	c #B2DB88",
"3+	c #ACD783",
"4+	c #C6E89E",
"5+	c #91D544",
"6+	c #90D542",
"7+	c #AFE076",
"8+	c #AFDA83",
"9+	c #6BA546",
"0+	c #A1BB97",
"a+	c #E3E5E3",
"b+	c #E7E7E7",
"c+	c #8B6327",
"d+	c #D6AD6C",
"e+	c #D1A45D",
"f+	c #B0984D",
"g+	c #649C2E",
"h+	c #B0DF7F",
"i+	c #8BD043",
"j+	c #85CD39",
"k+	c #85CD3A",
"l+	c #88CE3E",
"m+	c #94D351",
"n+	c #A8DA76",
"o+	c #6EAD42",
"p+	c #82AA72",
"q+	c #D8DDD7",
"r+	c #E6E6E6",
"s+	c #6F6F6F",
"t+	c #8A6325",
"u+	c #D4AB6B",
"v+	c #D0A35C",
"w+	c #CFA25C",
"x+	c #7F8C35",
"y+	c #6AAC34",
"z+	c #9AD361",
"A+	c #82C93D",
"B+	c #7BC632",
"C+	c #82C93C",
"D+	c #98D35F",
"E+	c #61A62F",
"F+	c #77A268",
"G+	c #DBDEDA",
"H+	c #E5E5E5",
"I+	c #D3AA6A",
"J+	c #CFA25B",
"K+	c #C99F58",
"L+	c #768931",
"M+	c #5B9B25",
"N+	c #7DC041",
"O+	c #7FC43F",
"P+	c #78C135",
"Q+	c #75C030",
"R+	c #73BF2D",
"S+	c #74C02F",
"T+	c #71BE2A",
"U+	c #7EC43F",
"V+	c #63A92F",
"W+	c #6F9F5A",
"X+	c #CCD5CA",
"Y+	c #D2AA68",
"Z+	c #CEA25A",
"`+	c #CEA15A",
" @	c #CBA059",
".@	c #999041",
"+@	c #588321",
"@@	c #529425",
"#@	c #5FA82B",
"$@	c #6BB234",
"%@	c #71B637",
"&@	c #7EC043",
"*@	c #68B723",
"=@	c #71BC31",
"-@	c #79BD3E",
";@	c #589B2F",
">@	c #88AC7B",
",@	c #D1A968",
"'@	c #CDA15A",
")@	c #CDA05A",
"!@	c #CDA059",
"~@	c #BF9752",
"{@	c #767954",
"]@	c #9DB995",
"^@	c #7FA770",
"/@	c #4D8D32",
"(@	c #77BC48",
"_@	c #5AAC20",
":@	c #6DB63A",
"<@	c #68AE3B",
"[@	c #549339",
"}@	c #A7BEA1",
"|@	c #E1E2E1",
"1@	c #886125",
"2@	c #D0A867",
"3@	c #CCA059",
"4@	c #CC9F59",
"5@	c #C29754",
"6@	c #8D7E67",
"7@	c #558F41",
"8@	c #74B64F",
"9@	c #70B44A",
"0@	c #569E33",
"a@	c #5B9348",
"b@	c #C1CDBE",
"c@	c #6E6E6E",
"d@	c #886124",
"e@	c #CFA766",
"f@	c #CB9F58",
"g@	c #C19654",
"h@	c #8C7E67",
"i@	c #E1E1E1",
"j@	c #518C40",
"k@	c #68AC4C",
"l@	c #458E2C",
"m@	c #76A06B",
"n@	c #D3D8D2",
"o@	c #CEA665",
"p@	c #CA9E57",
"q@	c #C09653",
"r@	c #8B7D66",
"s@	c #E0E0E0",
"t@	c #4D893F",
"u@	c #3E842C",
"v@	c #99B492",
"w@	c #DCDDDC",
"x@	c #CDA565",
"y@	c #C99D56",
"z@	c #BF9552",
"A@	c #8B7C66",
"B@	c #DFDFDF",
"C@	c #6F9A67",
"D@	c #B9C7B6",
"E@	c #876024",
"F@	c #CCA463",
"G@	c #C89C56",
"H@	c #BE9452",
"I@	c #8A7C65",
"J@	c #DEDEDE",
"K@	c #CED4CD",
"L@	c #845D21",
"M@	c #C39C5E",
"N@	c #CFA96D",
"O@	c #C4A067",
"P@	c #8C806C",
"Q@	c #805B20",
"R@	c #856024",
"S@	c #736858",
"T@	c #DDDDDD",
"U@	c #676767",
"V@	c #DCDCDC",
"W@	c #6B6B6B",
"X@	c #494949",
"                                                                                                ",
"                                                                                                ",
"                                                                                                ",
"                                                                                                ",
"                                  . + + + + + + + +                                             ",
"                                @ # $ $ $ $ $ $ $ % &                                           ",
"                              * = - ; ; ; ; ; ; ; > , '                                         ",
"                              ) ! ~ { { { { { { { ~ ! ]                                         ",
"              ^ / / / / / / ( _ : < [ [ [ [ [ [ [ < : } ( / / / / / / ^                         ",
"            ^ | 1 1 1 1 1 2 3 4 5 6 5 5 5 5 5 5 5 6 5 7 8 9 1 1 1 1 1 0 a                       ",
"            b c d d d d d e f g g g g g g g g g g g g g h i d d d d d c b                       ",
"            b c d d d d d j k l l l l l l l l l l l l l m n d d d d d c b                       ",
"            b o d d d d d d d d d d d d d d d d d d d d d d d d d d d o b                       ",
"            b o d d d d d d d d d d p q q q q q q q q q q q q q q q q r b                       ",
"            b s t t u u u u u u u u v w x x x x x x x x x x x x x x x y z A A A A A             ",
"            B C D D D D D D D D D D E F G H H H H H H H H H H H H H H H H H H H H G I           ",
"            B J K K K L L L L L L L M N O P P P P P P P P P P P P P P P P P P P P O I           ",
"            Q R S S S S S S S T T T U V W P P P P P P P P P P P P P P P P P P P P W I           ",
"            Q X Y Y Y Y Y Y Y Y Y Y Z ` -  . . . . . . . . . . . . . . . . . . . .- I           ",
"            ..+.@.@.@.@.@.@.@.@.#.$.%.&.- > > > > > > > > > > > > > > > > > > > > - I           ",
"            *.=.-.-.-.-.-.-.-.-.;.>.,.'.).!.!.!.!.!.!.!.!.!.!.!.!.!.!.!.!.!.!.!.!.).~.          ",
"            {.].^.^.^.^.^.^.^./.(._.:.<.P [.[.[.[.[.[.[.[.[.[.[.[.[.[.[.[.[.[.[.[.P ~.          ",
"            {.}.|.|.|.|.|.|.1.2.3.4.5.6. .7.8.7.7.7.7.7.7.7.7.7.7.7.7.7.7.7.7.7.7. .A           ",
"            9.0.a.a.a.a.a.a.b.c.d.e.f.6.> g.h.i.g.g.g.g.g.g.g.g.g.g.g.g.g.g.g.g.g.> A           ",
"            9.j.k.k.k.k.k.k.l.m.n.o.p.q.> g.r.s.t.u.g.g.g.g.g.g.g.g.g.g.g.g.g.g.g.> A           ",
"            v.w.x.x.x.x.x.x.y.z.A.B.C.D.!.u.E.F.G.H.I.u.u.u.u.u.u.u.u.u.u.u.u.u.u.!.A           ",
"            v.J.K.K.K.K.K.L.M.N.O.P.Q.R.S.T.U.V.W.X.Y.Z.T.T.T.T.T.T.T.T.T.T.T.T.T.[.A           ",
"            `. +.+.+.+.+.+.+++@+#+$+%+&+*+=+-+;+>+,+'+)+!+~+~+~+~+~+~+~+~+~+~+~+~+[.{+          ",
"            `.]+^+^+^+/+(+(+_+:+<+[+}+|+1+2+3+4+5+6+7+8+9+0+a+b+b+b+b+b+b+b+b+b+b+7.{+          ",
"            c+d+e+e+e+e+e+e+f+g+h+i+j+j+k+l+l+l+k+j+j+m+n+o+p+q+r+r+r+r+r+r+r+r+r+g.s+          ",
"            t+u+v+v+v+v+v+v+w+x+y+z+A+B+B+B+B+B+B+B+B+B+C+D+E+F+G+H+H+H+H+H+H+H+H+u.s+          ",
"            t+I+J+J+J+J+J+J+J+K+L+M+N+O+P+Q+R+S+T+T+T+S+U+V+W+X+H+H+H+H+H+H+H+H+H+u.s+          ",
"            t+Y+Z+`+`+`+`+`+`+`+ @.@+@@@#@$@%@&@*@*@=@-@;@>@G+$ $ $ $ $ $ $ $ $ $ T.s+          ",
"            t+,@'@'@'@'@)@)@)@)@)@!@~@{@]@^@/@(@_@:@<@[@}@|@% % % % % % % % % % % ~+s+          ",
"            1@2@3@3@3@3@3@3@3@4@4@4@5@6@b+# 7@8@9@0@a@b@# # # # # # # # # # # # # b+c@          ",
"            d@e@f@f@f@f@f@f@f@f@f@f@g@h@r+i@j@k@l@m@n@i@i@i@i@i@i@i@i@i@i@i@i@i@i@r+c@          ",
"            d@o@p@p@p@p@p@p@p@p@p@p@q@r@H+s@t@u@v@w@s@s@s@s@s@s@s@s@s@s@s@s@s@s@s@H++           ",
"            d@x@y@y@y@y@y@y@y@y@y@y@z@A@$ B@C@D@B@B@B@B@B@B@B@B@B@B@B@B@B@B@B@B@B@$ +           ",
"            E@F@G@G@G@G@G@G@G@G@G@G@H@I@% J@K@J@J@J@J@J@J@J@J@J@J@J@J@J@J@J@J@J@J@% +           ",
"            L@M@N@N@N@N@N@N@N@N@N@N@O@P@% J@J@J@J@J@J@J@J@J@J@J@J@J@J@J@J@J@J@J@J@% +           ",
"              Q@R@R@R@R@R@R@R@R@R@R@R@S@# T@T@T@T@T@T@T@T@T@T@T@T@T@T@T@T@T@T@T@T@# +           ",
"                                      U@i@V@V@V@V@V@V@V@V@V@V@V@V@V@V@V@V@V@V@V@V@i@W@          ",
"                                      W@r+b+b+b+b+b+b+b+b+b+b+b+b+b+b+b+b+b+b+b+b+r+W@          ",
"                                      X@W@W@W@W@W@W@W@W@W@W@W@W@W@W@W@W@W@W@W@W@W@W@X@          ",
"                                                                                                ",
"                                                                                                ",
"                                                                                                ",
"                                                                                                "};
