/* XPM */
static char * edit_delete_xpm[] = {
"48 48 602 2",
"  	c None",
". 	c #DE412C",
"+ 	c #DD402C",
"@ 	c #DD3D29",
"# 	c #DD3C27",
"$ 	c #DD402B",
"% 	c #D93C2A",
"& 	c #DA3C2B",
"* 	c #DF5747",
"= 	c #EA846F",
"- 	c #F0A48E",
"; 	c #F5B9A2",
"> 	c #F7C6B1",
", 	c #F9CCB5",
"' 	c #EA836E",
") 	c #E05644",
"! 	c #DA3D2B",
"~ 	c #DB3C2A",
"{ 	c #D73B2B",
"] 	c #D9402F",
"^ 	c #E87C6B",
"/ 	c #F2AF9D",
"( 	c #F5BAA6",
"_ 	c #F4AE94",
": 	c #F3A484",
"< 	c #F29F7C",
"[ 	c #F29C75",
"} 	c #F29A73",
"| 	c #F2AE9D",
"1 	c #E87C6A",
"2 	c #DA4030",
"3 	c #D53B2B",
"4 	c #E47665",
"5 	c #F2AE9F",
"6 	c #F2A490",
"7 	c #EF9074",
"8 	c #EE8767",
"9 	c #EE8A68",
"0 	c #EF8D6A",
"a 	c #F0906B",
"b 	c #F0916C",
"c 	c #F0926D",
"d 	c #F2A590",
"e 	c #E47565",
"f 	c #D63B2B",
"g 	c #D4382B",
"h 	c #D7493C",
"i 	c #ED9B8E",
"j 	c #EF9E8E",
"k 	c #EB8069",
"l 	c #EA7B60",
"m 	c #EB7F62",
"n 	c #EC8264",
"o 	c #ED8565",
"p 	c #EE8968",
"q 	c #EE8B69",
"r 	c #EF8B69",
"s 	c #EF9F8E",
"t 	c #ED9A8C",
"u 	c #D3392C",
"v 	c #D0372B",
"w 	c #DB5A4F",
"x 	c #EE9F93",
"y 	c #EA8372",
"z 	c #E76F59",
"A 	c #E8725B",
"B 	c #E9765D",
"C 	c #EA795F",
"D 	c #EB7C60",
"E 	c #EC8163",
"F 	c #EC8364",
"G 	c #ED8465",
"H 	c #EA8373",
"I 	c #EE9E93",
"J 	c #DA594D",
"K 	c #D0372C",
"L 	c #CF372B",
"M 	c #DB5D54",
"N 	c #EC978E",
"O 	c #E66E60",
"P 	c #E56654",
"Q 	c #E66A56",
"R 	c #E76D58",
"S 	c #E8715A",
"T 	c #E9745C",
"U 	c #E9775D",
"V 	c #E26750",
"W 	c #DD5945",
"X 	c #D74C3C",
"Y 	c #D54637",
"Z 	c #D54837",
"` 	c #DA513E",
" .	c #E36A53",
"..	c #E9795D",
"+.	c #E66F60",
"@.	c #ED968D",
"#.	c #DA5D53",
"$.	c #CE372B",
"%.	c #CA352B",
"&.	c #D6534B",
"*.	c #EA9188",
"=.	c #E46658",
"-.	c #E35E4F",
";.	c #E46151",
">.	c #E56553",
",.	c #E66855",
"'.	c #E76B57",
").	c #E46752",
"!.	c #D64B3E",
"~.	c #CB362C",
"{.	c #CC382D",
"].	c #CC352A",
"^.	c #CC332A",
"/.	c #CC362D",
"(.	c #CA372C",
"_.	c #D74C3F",
":.	c #E46954",
"<.	c #EB9088",
"[.	c #D5534B",
"}.	c #CD423A",
"|.	c #E98C84",
"1.	c #E26459",
"2.	c #E15A4D",
"3.	c #E25B4E",
"4.	c #E35D4F",
"5.	c #E45F50",
"6.	c #E46252",
"7.	c #E66857",
"8.	c #D1453B",
"9.	c #C8332A",
"0.	c #C8352B",
"a.	c #C9342C",
"b.	c #D64B3F",
"c.	c #E36251",
"d.	c #E98B84",
"e.	c #CD3F38",
"f.	c #C6352D",
"g.	c #E37C75",
"h.	c #E26A61",
"i.	c #DF564B",
"j.	c #E0574C",
"k.	c #E1594D",
"l.	c #E25A4D",
"m.	c #E25C4E",
"n.	c #E66D60",
"o.	c #E8877C",
"p.	c #C93932",
"q.	c #C7332C",
"r.	c #CD3C34",
"s.	c #E15A4B",
"t.	c #E36B63",
"u.	c #E37B74",
"v.	c #C5332C",
"w.	c #C4332C",
"x.	c #D55A54",
"y.	c #E47871",
"z.	c #DD5249",
"A.	c #DE5449",
"B.	c #DF554A",
"C.	c #E0574B",
"D.	c #E0584C",
"E.	c #E8766B",
"F.	c #E47970",
"G.	c #C5342E",
"H.	c #C8362F",
"I.	c #DE564B",
"J.	c #E47972",
"K.	c #D45652",
"L.	c #C5312C",
"M.	c #C1342F",
"N.	c #E47B75",
"O.	c #DD574E",
"P.	c #DC5047",
"Q.	c #DD5248",
"R.	c #DE5349",
"S.	c #DE544A",
"T.	c #D64A41",
"U.	c #E1594C",
"V.	c #E7796F",
"W.	c #DD6B63",
"X.	c #C1312C",
"Y.	c #C2312C",
"Z.	c #C83833",
"`.	c #DD544A",
" +	c #DD574F",
".+	c #E37B75",
"++	c #C2342F",
"@+	c #BE2F2B",
"#+	c #D0534F",
"$+	c #E06B65",
"%+	c #DA4C45",
"&+	c #DB4E46",
"*+	c #DC4F47",
"=+	c #DC5148",
"-+	c #CE423B",
";+	c #BE2E2B",
">+	c #D2453D",
",+	c #E0594D",
"'+	c #E77D73",
")+	c #D45B55",
"!+	c #BF2F2D",
"~+	c #CE403A",
"{+	c #BF2E2C",
"]+	c #BC2E2D",
"^+	c #DC6A67",
"/+	c #DA534D",
"(+	c #D94A44",
"_+	c #DA4B44",
":+	c #DA4D45",
"<+	c #D74A43",
"[+	c #BC2E2E",
"}+	c #BB2F2D",
"|+	c #D44841",
"1+	c #E05A4F",
"2+	c #E77E75",
"3+	c #CB4D49",
"4+	c #D84B44",
"5+	c #DA544E",
"6+	c #DC6B68",
"7+	c #BD2E2D",
"8+	c #C03838",
"9+	c #DE6A67",
"0+	c #D74641",
"a+	c #D84842",
"b+	c #D94943",
"c+	c #C83A37",
"d+	c #BB2D2D",
"e+	c #BB2E2D",
"f+	c #D64A42",
"g+	c #DD5148",
"h+	c #E05B52",
"i+	c #E57A73",
"j+	c #C43E3C",
"k+	c #BB2D2B",
"l+	c #BB2E2E",
"m+	c #C73A37",
"n+	c #BF3837",
"o+	c #C84848",
"p+	c #DA5A56",
"q+	c #D64440",
"r+	c #D74541",
"s+	c #D74742",
"t+	c #D74741",
"u+	c #B92D2E",
"v+	c #B92E2F",
"w+	c #DE5C54",
"x+	c #E1746E",
"y+	c #BB3434",
"z+	c #DA5B57",
"A+	c #C94847",
"B+	c #B62B2E",
"C+	c #D05252",
"D+	c #D74D4B",
"E+	c #D5423F",
"F+	c #D5433F",
"G+	c #CE3E3C",
"H+	c #B62C2E",
"I+	c #B52D2D",
"J+	c #BB3032",
"K+	c #D94B44",
"L+	c #DB4D45",
"M+	c #DB4D46",
"N+	c #DF605A",
"O+	c #DC6C67",
"P+	c #B62F31",
"Q+	c #B52C2F",
"R+	c #CF3F3C",
"S+	c #D74D4C",
"T+	c #CF5251",
"U+	c #B52B2D",
"V+	c #B32A2E",
"W+	c #D35555",
"X+	c #D44442",
"Y+	c #D33F3D",
"Z+	c #D4403E",
"`+	c #C33636",
" @	c #B12A2D",
".@	c #B42B2E",
"+@	c #BE3434",
"@@	c #D94A43",
"#@	c #DE635D",
"$@	c #D6605C",
"%@	c #B22B30",
"&@	c #B32A2D",
"*@	c #C53737",
"=@	c #D54543",
"-@	c #D25655",
";@	c #B22A2D",
">@	c #B0292E",
",@	c #D55555",
"'@	c #D23E3D",
")@	c #D23D3C",
"!@	c #D33E3C",
"~@	c #BC3033",
"{@	c #B1292E",
"]@	c #C33737",
"^@	c #D84742",
"/@	c #D84943",
"(@	c #DE6560",
"_@	c #CE5351",
":@	c #B12A2E",
"<@	c #BE3134",
"[@	c #D55455",
"}@	c #B0292D",
"|@	c #AC272F",
"1@	c #D45253",
"2@	c #D03A3A",
"3@	c #D13A3A",
"4@	c #D13B3B",
"5@	c #D23C3B",
"6@	c #B62D31",
"7@	c #AE2830",
"8@	c #C73939",
"9@	c #D64540",
"0@	c #D64742",
"a@	c #DD6460",
"b@	c #C34547",
"c@	c #AE2930",
"d@	c #B62E32",
"e@	c #D45152",
"f@	c #AD282F",
"g@	c #AA262F",
"h@	c #D34D4F",
"i@	c #CF3839",
"j@	c #D03939",
"k@	c #B52C32",
"l@	c #AB282E",
"m@	c #CA3B3A",
"n@	c #D64644",
"o@	c #DB6260",
"p@	c #BA3A3F",
"q@	c #AD272E",
"r@	c #B42C32",
"s@	c #D34C4D",
"t@	c #AB272F",
"u@	c #A82430",
"v@	c #D0484B",
"w@	c #CD3638",
"x@	c #CE3537",
"y@	c #CF3638",
"z@	c #CF3738",
"A@	c #B62D33",
"B@	c #AA2730",
"C@	c #CD3B3B",
"D@	c #D54745",
"E@	c #D95E5D",
"F@	c #B13038",
"G@	c #B62C33",
"H@	c #CE3638",
"I@	c #A9262F",
"J@	c #A7252F",
"K@	c #C94145",
"L@	c #CD363A",
"M@	c #CD3336",
"N@	c #CD3436",
"O@	c #BA2D33",
"P@	c #A6242F",
"Q@	c #AA2731",
"R@	c #CE3A3A",
"S@	c #D13C3B",
"T@	c #D44747",
"U@	c #D45758",
"V@	c #AA2933",
"W@	c #A82530",
"X@	c #BA2C33",
"Y@	c #A72630",
"Z@	c #A5252F",
"`@	c #C23940",
" #	c #CD373B",
".#	c #CB3034",
"+#	c #CC3135",
"@#	c #CC3235",
"##	c #C32F34",
"$#	c #A52430",
"%#	c #A52530",
"&#	c #AC2932",
"*#	c #CF3939",
"=#	c #D03839",
"-#	c #D4494A",
";#	c #CE4F52",
">#	c #A52631",
",#	c #C32F35",
"'#	c #C13940",
")#	c #B5303A",
"!#	c #CC393F",
"~#	c #CA2D32",
"{#	c #CA2E33",
"]#	c #CB2F34",
"^#	c #A32331",
"/#	c #B12A33",
"(#	c #CE3637",
"_#	c #D34A4B",
":#	c #C7434A",
"<#	c #A12230",
"[#	c #A1222F",
"}#	c #CA3034",
"|#	c #B52F3B",
"1#	c #A52635",
"2#	c #CD3D43",
"3#	c #C82B31",
"4#	c #C92C31",
"5#	c #C92C32",
"6#	c #B12731",
"7#	c #9F2130",
"8#	c #9F2230",
"9#	c #B72B33",
"0#	c #CC3336",
"a#	c #D2494C",
"b#	c #BC3942",
"c#	c #9F2131",
"d#	c #A42734",
"e#	c #9D2030",
"f#	c #C43740",
"g#	c #C82D34",
"h#	c #C82930",
"i#	c #C82A30",
"j#	c #C52A31",
"k#	c #BC2B32",
"l#	c #CB2F33",
"m#	c #D0474B",
"n#	c #B1313C",
"o#	c #9D2131",
"p#	c #C42A31",
"q#	c #C43840",
"r#	c #981F31",
"s#	c #AF2C38",
"t#	c #C9343C",
"u#	c #C6262E",
"v#	c #C7272F",
"w#	c #C7282F",
"x#	c #B02531",
"y#	c #9A2031",
"z#	c #991F31",
"A#	c #C02A32",
"B#	c #CA2F35",
"C#	c #CE4348",
"D#	c #A62938",
"E#	c #B32431",
"F#	c #AF2B39",
"G#	c #9A1F32",
"H#	c #971F32",
"I#	c #C23643",
"J#	c #C22733",
"K#	c #C2252F",
"L#	c #C4252F",
"M#	c #C5262E",
"N#	c #A12031",
"O#	c #941D2F",
"P#	c #C22730",
"Q#	c #C72930",
"R#	c #C92F36",
"S#	c #CA3D45",
"T#	c #AF2631",
"U#	c #C13643",
"V#	c #971F33",
"W#	c #941D32",
"X#	c #A8283B",
"Y#	c #C03240",
"Z#	c #BD2332",
"`#	c #BE2431",
" $	c #C02431",
".$	c #C12530",
"+$	c #C02530",
"@$	c #991E30",
"#$	c #901D2E",
"$$	c #871B2C",
"%$	c #9A1F31",
"&$	c #C4252E",
"*$	c #C52B35",
"=$	c #C22631",
"-$	c #A6283B",
";$	c #961E31",
">$	c #921C33",
",$	c #B53042",
"'$	c #BA2A3B",
")$	c #B92233",
"!$	c #BA2333",
"~$	c #BB2332",
"{$	c #BC2332",
"]$	c #BC2431",
"^$	c #9B1E31",
"/$	c #8F1D31",
"($	c #8B1B2F",
"_$	c #9E1E32",
":$	c #C02430",
"<$	c #BF2431",
"[$	c #B43042",
"}$	c #921D33",
"|$	c #921E35",
"1$	c #B63146",
"2$	c #B4253A",
"3$	c #B42135",
"4$	c #B62135",
"5$	c #B72234",
"6$	c #B82234",
"7$	c #A41E33",
"8$	c #901B32",
"9$	c #82192D",
"0$	c #8E1A31",
"a$	c #A71F33",
"b$	c #BA2233",
"c$	c #B63145",
"d$	c #931E34",
"e$	c #861930",
"f$	c #972038",
"g$	c #B42F46",
"h$	c #B02239",
"i$	c #B02037",
"j$	c #B12037",
"k$	c #B22036",
"l$	c #B32036",
"m$	c #B02034",
"n$	c #9D1E33",
"o$	c #8D1B32",
"p$	c #8B1A31",
"q$	c #79162C",
"r$	c #6C1427",
"s$	c #661224",
"t$	c #79162B",
"u$	c #891930",
"v$	c #8C1A31",
"w$	c #AF2034",
"x$	c #972139",
"y$	c #861931",
"z$	c #97223C",
"A$	c #B0304B",
"B$	c #AC223D",
"C$	c #AB1E39",
"D$	c #AC1F39",
"E$	c #AD1F38",
"F$	c #AE1F38",
"G$	c #AF1F38",
"H$	c #AF1F37",
"I$	c #A71F36",
"J$	c #9E1D35",
"K$	c #981C34",
"L$	c #921A33",
"M$	c #901A33",
"N$	c #941B34",
"O$	c #9D1D35",
"P$	c #A61E36",
"Q$	c #B01F37",
"R$	c #871832",
"S$	c #831731",
"T$	c #91213C",
"U$	c #AC3250",
"V$	c #AA2844",
"W$	c #A71D3B",
"X$	c #A81D3A",
"Y$	c #A91E3A",
"Z$	c #AA1E3A",
"`$	c #AA1E39",
" %	c #AC324F",
".%	c #831732",
"+%	c #7C1530",
"@%	c #881D38",
"#%	c #A53250",
"$%	c #AA3150",
"%%	c #A42042",
"&%	c #A21C3D",
"*%	c #A31C3C",
"=%	c #A41C3C",
"-%	c #A51C3C",
";%	c #A53251",
">%	c #7A152F",
",%	c #831734",
"'%	c #932746",
")%	c #A83958",
"!%	c #A63052",
"~%	c #A02246",
"{%	c #9E1A3E",
"]%	c #9E1B3E",
"^%	c #9F1B3E",
"/%	c #761330",
"(%	c #811835",
"_%	c #922848",
":%	c #A2395A",
"<%	c #A73B5D",
"[%	c #A33054",
"}%	c #9F274C",
"|%	c #9D2147",
"1%	c #9A1C42",
"2%	c #991A41",
"3%	c #9B1D43",
"4%	c #A1395A",
"5%	c #922849",
"6%	c #761430",
"7%	c #72122E",
"8%	c #7D1434",
"9%	c #831C3C",
"0%	c #90294A",
"a%	c #9A3356",
"b%	c #A03A5D",
"c%	c #A43F63",
"d%	c #A64164",
"e%	c #8F284B",
"f%	c #6C1130",
"g%	c #761235",
"h%	c #7A1336",
"i%	c #7A1435",
"j%	c #7B1336",
"k%	c #6D1130",
"                                                                                                ",
"                                                                                                ",
"                                                                                                ",
"                                                                                                ",
"                                                                                                ",
"                                        . + @ # # @ $ .                                         ",
"                                % & * = - ; > , , > ; - ' ) ! ~                                 ",
"                            { ] ^ / ( _ : < [ } } [ < : _ ( | 1 2 {                             ",
"                          3 4 5 6 7 8 9 0 a b c c b a 0 9 8 7 d 5 e f                           ",
"                      g h i j k l m n o 8 p q r r q p 8 o n m l k s t h u                       ",
"                    v w x y z A B C D m E F G o o G F E m D C B A z H I J K                     ",
"                  L M N O P Q R S T B U V W X Y Z ` W  ...B T S R Q P +.@.#.$.                  ",
"                %.&.*.=.-.;.>.,.'.).!.~.{.].        ^./.(._.:.'.,.>.;.-.=.<.[.~.                ",
"                }.|.1.2.3.4.5.6.7.8.9.                    0.a.b.c.5.4.3.2.1.d.e.                ",
"              f.g.h.i.j.k.l.m.4.n.o.p.                        q.r.s.l.k.j.i.t.u.v.              ",
"            w.x.y.z.A.B.C.D.k.l.3.E.F.G.                        w.H.I.C.B.A.z.J.K.L.            ",
"            M.N.O.P.Q.R.S.T.C.D.U.2.V.W.X.                        Y.Z.`.R.Q.P. +.+++            ",
"          @+#+$+%+&+*+=+-+;+>+B.i.C.,+'+)+X.                        !+~+=+*+&+%+$+#+{+          ",
"          ]+^+/+(+_+:+<+[+  }+|+R.S.B.1+2+3+[+                        [+4+:+_+(+5+6+7+          ",
"          8+9+0+a+b+(+c+d+    e+f+g+Q.z.h+i+j+k+                      l+m+(+b+a+0+9+n+          ",
"          o+p+q+r+s+t+u+        v+4+*+*+P.w+x+y+                        u+t+s+r+q+z+A+          ",
"        B+C+D+E+F+q+G+H+        I+J+K+:+L+M+N+O+P+                      Q+R+q+F+E+S+T+U+        ",
"        V+W+X+Y+Z+E+`+ @          .@+@@@(+(+(+#@$@%@                    &@*@E+Z+Y+=@-@;@        ",
"        >@,@'@)@!@Y+~@              {@]@s+^@a+/@(@_@:@                    <@Y+!@)@'@[@}@        ",
"        |@1@2@3@4@5@6@                7@8@q+9@9@0@a@b@c@                  d@5@4@3@2@e@f@        ",
"        g@h@i@i@j@2@k@                  l@m@E+E+E+n@o@p@q@                r@2@j@i@i@s@t@        ",
"        u@v@w@x@y@z@A@                    B@C@Y+Y+Y+D@E@F@                G@z@y@x@H@v@I@        ",
"        J@K@L@M@N@x@O@P@                    Q@R@S@S@S@T@U@V@            W@X@x@N@M@L@K@Y@        ",
"        Z@`@ #.#+#@###$#                    %#&#*#j@j@=#-#;#>#          $#,#@#+#.# #'#$#        ",
"          )#!#~#{#]#]#^#                      ^#/#(#(#x@x@_#:#<#        [#}#]#{#~#!#|#          ",
"          1#2#3#4#5#~#6#7#                      8#9#M@M@@#0#a#b#8#    c#6#~#5#4#3#2#d#          ",
"          e#f#g#h#i#3#j#e#                        e#k#.#]#l#+#m#n#o#  e#p#3#i#h#g#q#e#          ",
"          r#s#t#u#v#w#w#x#y#                        z#A#5#5#4#B#C#D#z#E#w#w#v#u#t#F#G#          ",
"            H#I#J#K#L#M#u#N#O#                        z#P#h#Q#w#R#S#T#M#M#L#K#J#U#V#            ",
"            W#X#Y#Z#`# $.$+$@$#$                      $$%$&$u#M#L#*$=$.$ $`#Z#Y#-$;$            ",
"              >$,$'$)$!$~${$]$^$/$                      ($_$:$<$`#`#{$~$!$)$'$[$}$              ",
"                |$1$2$3$4$5$6$)$7$8$9$                    0$a$b$)$6$5$4$3$2$c$d$                ",
"                e$f$g$h$i$j$k$l$3$m$n$o$p$q$r$    s$t$u$v$n$w$3$l$k$j$i$h$g$x$y$                ",
"                  y$z$A$B$C$D$E$F$G$H$i$I$J$K$L$M$N$O$P$Q$H$G$F$E$D$C$B$A$z$R$                  ",
"                    S$T$U$V$W$W$X$Y$Y$Z$`$`$C$C$C$C$`$`$Z$Y$Y$X$W$W$V$ %T$.%                    ",
"                      +%@%#%$%%%&%*%=%=%=%-%-%-%-%-%-%=%=%=%*%&%%%$%;%@%>%                      ",
"                          ,%'%)%!%~%{%{%]%^%^%^%^%^%^%]%{%{%~%!%)%'%,%                          ",
"                            /%(%_%:%<%[%}%|%1%2%2%3%|%}%[%<%4%5%(%6%                            ",
"                                7%8%9%0%a%b%c%d%d%c%b%a%e%9%8%7%                                ",
"                                      f%g%h%i%j%j%i%h%g%k%                                      ",
"                                                                                                ",
"                                                                                                ",
"                                                                                                "};
