/* XPM */
static char * minus_xpm[] = {
"48 48 195 2",
"  	c None",
". 	c #3566A3",
"+ 	c #3363A2",
"@ 	c #3263A2",
"# 	c #3262A1",
"$ 	c #3162A0",
"% 	c #3161A0",
"& 	c #31619F",
"* 	c #31609F",
"= 	c #30609F",
"- 	c #30609E",
"; 	c #305F9E",
"> 	c #2F5F9D",
", 	c #2F5E9D",
"' 	c #2F5E9C",
") 	c #2E5E9C",
"! 	c #2E5D9C",
"~ 	c #2E5D9B",
"{ 	c #2E5C9B",
"] 	c #2D5C9A",
"^ 	c #2D5B9A",
"/ 	c #2D5B99",
"( 	c #2C5B99",
"_ 	c #2C5A98",
": 	c #2B5998",
"< 	c #2B5997",
"[ 	c #2B5896",
"} 	c #2B5A97",
"| 	c #3465A3",
"1 	c #5A83B5",
"2 	c #6B90BE",
"3 	c #6A8FBE",
"4 	c #698FBD",
"5 	c #698EBD",
"6 	c #698DBC",
"7 	c #688DBC",
"8 	c #678CBC",
"9 	c #678CBB",
"0 	c #668CBB",
"a 	c #658BBB",
"b 	c #648ABB",
"c 	c #638ABA",
"d 	c #6389BA",
"e 	c #6188BA",
"f 	c #6187B9",
"g 	c #6087B9",
"h 	c #5F86B8",
"i 	c #5D85B7",
"j 	c #5C83B6",
"k 	c #5B83B6",
"l 	c #5A83B6",
"m 	c #5982B6",
"n 	c #5881B5",
"o 	c #5780B5",
"p 	c #4873AB",
"q 	c #2A5896",
"r 	c #7496C2",
"s 	c #7E9EC6",
"t 	c #7E9EC5",
"u 	c #7D9DC5",
"v 	c #7C9DC5",
"w 	c #7C9CC5",
"x 	c #7B9CC4",
"y 	c #7A9BC4",
"z 	c #7A9AC4",
"A 	c #799AC3",
"B 	c #789AC3",
"C 	c #7899C2",
"D 	c #7799C2",
"E 	c #7798C2",
"F 	c #7697C2",
"G 	c #7597C2",
"H 	c #7497C1",
"I 	c #7496C1",
"J 	c #7395C0",
"K 	c #547DB3",
"L 	c #527CB1",
"M 	c #285593",
"N 	c #7B9CC5",
"O 	c #517CB2",
"P 	c #4D79B0",
"Q 	c #4C78B0",
"R 	c #4C78AF",
"S 	c #4B77AF",
"T 	c #4A77AF",
"U 	c #4A76AE",
"V 	c #4976AE",
"W 	c #4975AE",
"X 	c #4875AD",
"Y 	c #4774AD",
"Z 	c #4674AD",
"` 	c #4673AC",
" .	c #4572AC",
"..	c #4472AC",
"+.	c #4472AB",
"@.	c #4371AB",
"#.	c #4270AA",
"$.	c #4170AA",
"%.	c #416FAA",
"&.	c #406FAA",
"*.	c #3F6EA9",
"=.	c #3E6DA9",
"-.	c #3C6CA7",
";.	c #4C77AF",
">.	c #275492",
",.	c #4371AC",
"'.	c #4270AB",
").	c #4170AB",
"!.	c #406EAA",
"~.	c #3F6EAA",
"{.	c #3D6CA9",
"].	c #3D6CA8",
"^.	c #3C6BA8",
"/.	c #3B6BA8",
"(.	c #3B6AA7",
"_.	c #3A6AA7",
":.	c #3A69A7",
"<.	c #3969A6",
"[.	c #3868A6",
"}.	c #3767A5",
"|.	c #3667A5",
"1.	c #3566A5",
"2.	c #3565A4",
"3.	c #3566A4",
"4.	c #4874AD",
"5.	c #275390",
"6.	c #5C84B6",
"7.	c #3F6DA9",
"8.	c #3C6CA8",
"9.	c #3969A7",
"0.	c #3768A6",
"a.	c #3465A4",
"b.	c #3466A4",
"c.	c #3667A6",
"d.	c #3769A6",
"e.	c #26528F",
"f.	c #577FB4",
"g.	c #7194C0",
"h.	c #406EA9",
"i.	c #3666A5",
"j.	c #3768A7",
"k.	c #3869A7",
"l.	c #396AA8",
"m.	c #3A6BA8",
"n.	c #4A77B0",
"o.	c #25508E",
"p.	c #527CB2",
"q.	c #4F79B0",
"r.	c #396AA6",
"s.	c #3667A4",
"t.	c #3768A5",
"u.	c #3869A6",
"v.	c #386AA7",
"w.	c #396AA7",
"x.	c #396BA8",
"y.	c #3B6CA9",
"z.	c #3B6DA9",
"A.	c #3C6DAA",
"B.	c #4C79B1",
"C.	c #244F8D",
"D.	c #2C5C99",
"E.	c #4470A9",
"F.	c #4E79B0",
"G.	c #4E79B1",
"H.	c #4F7AB0",
"I.	c #4F7AB1",
"J.	c #4E79B2",
"K.	c #4E7AB1",
"L.	c #4D79B1",
"M.	c #4E7AB2",
"N.	c #4D7AB1",
"O.	c #4D7AB2",
"P.	c #4E7AB3",
"Q.	c #4D7BB2",
"R.	c #4D7AB3",
"S.	c #4C7AB3",
"T.	c #3F6CA6",
"U.	c #25508D",
"V.	c #2B5A98",
"W.	c #2A5795",
"X.	c #295795",
"Y.	c #295694",
"Z.	c #285592",
"`.	c #285492",
" +	c #275391",
".+	c #265390",
"++	c #265290",
"@+	c #25518F",
"#+	c #25518E",
"$+	c #24508D",
"%+	c #244F8C",
"&+	c #234F8C",
"*+	c #234E8C",
"=+	c #234E8B",
"-+	c #254F8D",
"                                                                                                ",
"                                                                                                ",
"                                                                                                ",
"                                                                                                ",
"                                                                                                ",
"                                                                                                ",
"                                                                                                ",
"                                                                                                ",
"                                                                                                ",
"                                                                                                ",
"                                                                                                ",
"                                                                                                ",
"                                                                                                ",
"                                                                                                ",
"                                                                                                ",
"                                                                                                ",
"                                                                                                ",
"                                                                                                ",
"                    . + @ # # $ % & * = - ; > , ' ) ! ~ { ] ^ / ( _ _ : < < [ }                 ",
"                  | 1 2 2 3 4 5 5 6 7 8 9 0 a b c d e f g h h i i j k l m n o p q               ",
"                  $ 7 r s t u v v v w x y y z A A B C D E E F G G H I I J J K L M               ",
"                  * b N O P Q R S T U V W X Y Y Z `  ...+.@.@.#.$.%.&.*.*.=.-.;.>.              ",
"                  ; g C V ,.@.'.).%.&.!.~.=.=.{.].^./.(._.:.<.[.[.}.}.|.1.2.3.4.5.              ",
"                  , 6.I ..7.=.=.].8.^.(._._.9.<.[.0.}.|.1.3.a.a.b.1.1.1.|.c.d.V e.              ",
"                  ~ f.g.h._.9.<.[.[.}.|.i.1.2.a.a.1.1.1.|.c.c.0.0.j.k.k.k.l.m.n.o.              ",
"                  ] p.q.r.|.s.3.3.|.|.|.t.0.0.d.u.k.v.w.w.x.m.m.m.y.y.z.A.A.A.B.C.              ",
"                  D.E.F.F.F.G.G.H.I.G.I.G.J.K.K.L.M.N.N.N.O.O.M.P.O.Q.O.R.S.R.T.U.              ",
"                    V.< [ q W.W.X.Y.Y.M M Z.`.>. + +.+++e.@+@+#+o.$+C.%+&+*+=+-+                ",
"                                                                                                ",
"                                                                                                ",
"                                                                                                ",
"                                                                                                ",
"                                                                                                ",
"                                                                                                ",
"                                                                                                ",
"                                                                                                ",
"                                                                                                ",
"                                                                                                ",
"                                                                                                ",
"                                                                                                ",
"                                                                                                ",
"                                                                                                ",
"                                                                                                ",
"                                                                                                ",
"                                                                                                ",
"                                                                                                ",
"                                                                                                ",
"                                                                                                "};
