/* XPM */
static char * monitor_xpm[] = {
"48 48 163 2",
"  	c None",
". 	c #547312",
"+ 	c #668E0F",
"@ 	c #5C800F",
"# 	c #54740F",
"$ 	c #52720F",
"% 	c #374615",
"& 	c #4F6B12",
"* 	c #AFFF04",
"= 	c #A3EE03",
"- 	c #8CCD03",
"; 	c #8CCC03",
"> 	c #88C603",
", 	c #384715",
"' 	c #A3ED03",
") 	c #52710F",
"! 	c #A2ED03",
"~ 	c #A2EC03",
"{ 	c #A1EB03",
"] 	c #3A4E0E",
"^ 	c #577F02",
"/ 	c #547B01",
"( 	c #466601",
"_ 	c #31410E",
": 	c #464645",
"< 	c #706F6F",
"[ 	c #696868",
"} 	c #5F5E5E",
"| 	c #3E3D3C",
"1 	c #686767",
"2 	c #666565",
"3 	c #6F6E6E",
"4 	c #656464",
"5 	c #646363",
"6 	c #636262",
"7 	c #99CD28",
"8 	c #ADFB06",
"9 	c #8EB33B",
"0 	c #6E6D6D",
"a 	c #626161",
"b 	c #8DBA2A",
"c 	c #ACFA06",
"d 	c #8BB62C",
"e 	c #819750",
"f 	c #A6EC12",
"g 	c #ADFA07",
"h 	c #747868",
"i 	c #616060",
"j 	c #6E7D4C",
"k 	c #A4EA0F",
"l 	c #687053",
"m 	c #9FDB1E",
"n 	c #A7EE10",
"o 	c #7D8D58",
"p 	c #8AAA42",
"q 	c #6D6C6C",
"r 	c #93C822",
"s 	c #AAF509",
"t 	c #6E7C4C",
"u 	c #84A933",
"v 	c #7E8F56",
"w 	c #8BAE3F",
"x 	c #A3E417",
"y 	c #A2E11A",
"z 	c #605F5F",
"A 	c #697352",
"B 	c #ADFC05",
"C 	c #89B42D",
"D 	c #9CD918",
"E 	c #A1E313",
"F 	c #9BD324",
"G 	c #AAF40C",
"H 	c #72756A",
"I 	c #7A875C",
"J 	c #6C6B6B",
"K 	c #6A7353",
"L 	c #85AB32",
"M 	c #8DBB29",
"N 	c #666D55",
"O 	c #7F9F39",
"P 	c #8FB639",
"Q 	c #747966",
"R 	c #92BD34",
"S 	c #6B6A6A",
"T 	c #A2E611",
"U 	c #AAF608",
"V 	c #646957",
"W 	c #656B56",
"X 	c #ACF907",
"Y 	c #8FC027",
"Z 	c #646857",
"` 	c #8AB62C",
" .	c #98CA2A",
"..	c #ACF808",
"+.	c #747967",
"@.	c #9AD026",
"#.	c #A9F30C",
"$.	c #6B6C67",
"%.	c #8BB72C",
"&.	c #87AE30",
"*.	c #87B030",
"=.	c #AEFD04",
"-.	c #6B7650",
";.	c #95CC20",
">.	c #A7EF0C",
",.	c #5F5F5C",
"'.	c #566A2A",
").	c #8FB739",
"!.	c #90B838",
"~.	c #92BE33",
"{.	c #82994F",
"].	c #778F42",
"^.	c #88B12F",
"/.	c #96CD1F",
"(.	c #A9F30A",
"_.	c #799240",
":.	c #748945",
"<.	c #666E55",
"[.	c #87AE31",
"}.	c #526526",
"|.	c #A4E616",
"1.	c #757C64",
"2.	c #696965",
"3.	c #96CC1F",
"4.	c #99D41B",
"5.	c #6C784F",
"6.	c #A5EC0E",
"7.	c #A6ED0D",
"8.	c #6C794E",
"9.	c #61625B",
"0.	c #A9F409",
"a.	c #91C424",
"b.	c #9DDB17",
"c.	c #ADFB05",
"d.	c #738647",
"e.	c #7F9E39",
"f.	c #8FC026",
"g.	c #ABF708",
"h.	c #62645A",
"i.	c #6A7550",
"j.	c #82A635",
"k.	c #6B784F",
"l.	c #728548",
"m.	c #7B963E",
"n.	c #86AC32",
"o.	c #676F54",
"p.	c #8EBD28",
"q.	c #A5EB0F",
"r.	c #98D11D",
"s.	c #9BD819",
"t.	c #738746",
"u.	c #80A038",
"v.	c #656A56",
"w.	c #8FBE27",
"x.	c #88B22E",
"y.	c #6A6969",
"z.	c #40403F",
"A.	c #3D3C3B",
"B.	c #323231",
"C.	c #5D5C5C",
"D.	c #2D2D2B",
"E.	c #353433",
"F.	c #2C2C2B",
"                                                                                                ",
"                                                                                                ",
"                                                                                                ",
"                                                                                                ",
"                                                                                                ",
"    . + + + + + + + + + + + + + + + + + + + + + + + + + + + + + + + + + + + @ # # # # # $ %     ",
"  & * * * * * * * * * * * * * * * * * * * * * * * * * * * * * * * * * * * = - ; ; ; ; ; ; > ,   ",
"  + * * * * * * * * * * * * * * * * * * * * * * * * * * * * * * * * * * ' ; ; ; ; ; ; ; ; ; )   ",
"  + * * * * * * * * * * * * * * * * * * * * * * * * * * * * * * * * * ! ; ; ; ; ; ; ; ; ; ; #   ",
"  + * * * * * * * * * * * * * * * * * * * * * * * * * * * * * * * * ~ ; ; ; ; ; ; ; ; ; ; ; #   ",
"  + * * * * * * * * * * * * * * * * * * * * * * * * * * * * * * * { ; ; ; ; ; ; ; ; ; ; ; ; #   ",
"  + * * * * * * * * * * * * * * * * * * * * * * * * * * * * * * { ; ; ; ; ; ; ; ; ; ; ; ; ; #   ",
"  ] ^ ^ ^ ^ ^ ^ ^ ^ ^ ^ ^ ^ ^ ^ ^ ^ ^ ^ ^ ^ ^ ^ ^ ^ ^ ^ ^ ^ ^ / ( ( ( ( ( ( ( ( ( ( ( ( ( ( _   ",
"  : < < < < < < < < < < < < < < < < < < < < < < < < < < < < [ } } } } } } } } } } } } } } } |   ",
"  : < < < < < < < < < < < < < < < < < < < < < < < < < < < 1 } } } } } } } } } } } } } } } } |   ",
"  : < < < < < < < < < < < < < < < < < < < < < < < < < < 2 } } } } } } } } } } } } } } } } } |   ",
"  : < < < < < < < < < < < < < < < < < < < < < < < < 3 4 } } } } } } } } } } } } } } } } } } |   ",
"  : < < < < < < < < < < < < < < < < < < < < < < < 3 5 } } } } } } } } } } } } } } } } } } } |   ",
"  : < < < < < < < < < < < < < < < < < < < < < < 3 6 } } } } } } } } } } } } } } } } } } } } |   ",
"  : < < < < < < < < < < 7 8 9 < < < < < < < < 0 a } } b c d } } } } } } } } } } } } } } } } |   ",
"  : < < < < < < < < < e * f g h < < < < < < 0 i } } j * k * l } } } } } } } } } } } } } } } |   ",
"  : < < < < < < < < < m n o * p < < < < < q i } } } r s t * u } } } } } } } } } } } } } } } |   ",
"  : < < < < < < < < v * w < x y < < < < q z } } } A B C } D E } } } } } } } } } } } } } } } |   ",
"  : < < < < < < < < F G H < w * I < < J K L t } } M c N } O * t } } } } } } } } } } } } } } |   ",
"  : < < < < < < < I * P < < Q 8 R < S } T * U V W X Y } } Z 8 ` } } } } } } } } } } } } } } |   ",
"  : < < < < < < <  ...+.< < < @.#.$.} j * %.* &.*.=.-.} } } ;.>.,.} } } } } } } } } } } } } |   ",
"  '.).).).).).).!.B ~.< < < < {.* ].} ^.B V /.(.(.;.} } } } _.* :.} } } <.u [.[.[.[.[.[.[.[.}.  ",
"  + * * * * * * * |.1.< < < < 2.>.3.} T 4.} 5.6.7.8.} } } } 9.0.a.} } } b.* * * * * * * * * +   ",
"  : < < < < < < < < < < < < 2 } C c.d.* e.} } } } } } } } } } f.g.h.} i.* j.} } } } } } } } |   ",
"  : < < < < < < < < < < 3 4 } } k.* 6.=.N } } } } } } } } } } l.* m.} n.* o.} } } } } } } } |   ",
"  : < < < < < < < < < 3 5 } } } } p.B ` } } } } } } } } } } } } q.r.} E s.} } } } } } } } } |   ",
"  : < < < < < < < < 3 6 } } } } } } } } } } } } } } } } } } } } ^.B t.* u.} } } } } } } } } |   ",
"  : < < < < < < < 0 a } } } } } } } } } } } } } } } } } } } } } k.* 7.B v.} } } } } } } } } |   ",
"  : < < < < < < 0 i } } } } } } } } } } } } } } } } } } } } } } } w.B x.} } } } } } } } } } |   ",
"  : < < < < < q i } } } } } } } } } } } } } } } } } } } } } } } } } } } } } } } } } } } } } |   ",
"  : < < < < q z } } } } } } } } } } } } } } } } } } } } } } } } } } } } } } } } } } } } } } |   ",
"  : < < < J z } } } } } } } } } } } } } } } } } } } } } } } } } } } } } } } } } } } } } } } |   ",
"  : < < S } } } } } } } } } } } } } } } } } } } } } } } } } } } } } } } } } } } } } } } } } |   ",
"  : < y.} } } } } } } } } } } } } } } } } } } } } } } } } } } } } } } } } } } } } } } } } } |   ",
"  : [ } } } } } } } } } } } } } } } } } } } } } } } } } } } } } } } } } } } } } } } } } } } |   ",
"  z.} } } } } } } } } } } } } } } } } } } } } } } } } } } } } } } } } } } } } } } } } } } } |   ",
"  | } } } } } } } } } } } } } } } } } } } } } } } } } } } } } } } } } } } } } } } } } } } } |   ",
"  | } } } } } } } } } } } } } } } } } } } } } } } } } } } } } } } } } } } } } } } } } } } } A.  ",
"  B.} } } } } } } } } } } } } } } } } } } } } } } } } } } } } } } } } } } } } } } } } } } C.D.  ",
"    E.| | | | | | | | | | | | | | | | | | | | | | | | | | | | | | | | | | | | | | | | | A.F.    ",
"                                                                                                ",
"                                                                                                ",
"                                                                                                "};
