/* XPM */
static char * pattern_xpm[] = {
"48 48 341 2",
"  	c None",
". 	c #C3C3C3",
"+ 	c #C4C4C4",
"@ 	c #C5C5C5",
"# 	c #F1F1F1",
"$ 	c #F0F0F0",
"% 	c #EFEFEF",
"& 	c #BABABA",
"* 	c #747474",
"= 	c #838383",
"- 	c #757676",
"; 	c #7D7F80",
"> 	c #7E8081",
", 	c #787A7C",
"' 	c #6C6D6D",
") 	c #D2D2D2",
"! 	c #C2C2C2",
"~ 	c #EEEEEE",
"{ 	c #B7B7B7",
"] 	c #B9B9B9",
"^ 	c #898A8C",
"/ 	c #ADC5D2",
"( 	c #AFC8D6",
"_ 	c #96AEBE",
": 	c #899399",
"< 	c #CFCFCF",
"[ 	c #B3B3B3",
"} 	c #87898B",
"| 	c #A1BDCC",
"1 	c #A3C0D0",
"2 	c #86A2B4",
"3 	c #839098",
"4 	c #CACACA",
"5 	c #EDEDED",
"6 	c #B0B0B0",
"7 	c #BCBCBC",
"8 	c #87898A",
"9 	c #83929A",
"0 	c #C6C6C6",
"a 	c #ADADAD",
"b 	c #797A7B",
"c 	c #848687",
"d 	c #707071",
"e 	c #7F8284",
"f 	c #808385",
"g 	c #777A7D",
"h 	c #757879",
"i 	c #ECECEC",
"j 	c #AAAAAA",
"k 	c #8FA2AD",
"l 	c #A1BFCF",
"m 	c #838789",
"n 	c #E8E8E8",
"o 	c #BEC4CA",
"p 	c #AFAFAF",
"q 	c #BDBDBD",
"r 	c #323232",
"s 	c #3C3C3C",
"t 	c #2C2C2C",
"u 	c #EBEBEB",
"v 	c #A6A6A6",
"w 	c #8DA2AE",
"x 	c #9FBDCE",
"y 	c #828689",
"z 	c #E7E7E7",
"A 	c #BDC3C9",
"B 	c #B2B2B2",
"C 	c #282828",
"D 	c #393939",
"E 	c #505050",
"F 	c #404040",
"G 	c #333333",
"H 	c #A4A4A4",
"I 	c #8DA3B0",
"J 	c #9DBBCD",
"K 	c #B5B5B5",
"L 	c #B6B6B6",
"M 	c #252525",
"N 	c #474747",
"O 	c #575757",
"P 	c #454545",
"Q 	c #303030",
"R 	c #C7C7C7",
"S 	c #EAEAEA",
"T 	c #A0A0A0",
"U 	c #879FAD",
"V 	c #95B4C6",
"W 	c #7F8486",
"X 	c #DDDEDF",
"Y 	c #E1E2E3",
"Z 	c #B5BCC3",
"` 	c #B2B3B4",
" .	c #B1B1B1",
"..	c #2B2B2B",
"+.	c #525252",
"@.	c #585858",
"#.	c #444444",
"$.	c #C8C8C8",
"%.	c #9C9D9D",
"&.	c #7A92A0",
"*.	c #83A1B4",
"=.	c #797E81",
"-.	c #C2C6CB",
";.	c #C5C9CE",
">.	c #A0A9B3",
",.	c #A3A6A9",
"'.	c #545454",
").	c #595959",
"!.	c #212121",
"~.	c #E9E9E9",
"{.	c #999A9A",
"].	c #8AA4B3",
"^.	c #96B7C9",
"/.	c #818588",
"(.	c #E5E5E5",
"_.	c #BBC1C7",
":.	c #BEBEBE",
"<.	c #363636",
"[.	c #535353",
"}.	c #5A5A5A",
"|.	c #565656",
"1.	c #262626",
"2.	c #969798",
"3.	c #89A4B4",
"4.	c #94B5C8",
"5.	c #808587",
"6.	c #C1C1C1",
"7.	c #9A9A9A",
"8.	c #5B5B5B",
"9.	c #434343",
"0.	c #555555",
"a.	c #2E2E2E",
"b.	c #929394",
"c.	c #8AA6B6",
"d.	c #92B4C7",
"e.	c #E4E4E4",
"f.	c #5F5F5F",
"g.	c #343434",
"h.	c #515151",
"i.	c #5C5C5C",
"j.	c #3F3F3F",
"k.	c #353535",
"l.	c #151515",
"m.	c #CBCBCB",
"n.	c #8C8E8F",
"o.	c #7E9AAB",
"p.	c #83A4B8",
"q.	c #7B7F83",
"r.	c #CCCFD2",
"s.	c #D0D3D6",
"t.	c #A9B1B9",
"u.	c #59595A",
"v.	c #4E4E4E",
"w.	c #5D5D5D",
"x.	c #3D3D3D",
"y.	c #898B8C",
"z.	c #7D9BAE",
"A.	c #82A4B9",
"B.	c #7B8083",
"C.	c #CDD0D3",
"D.	c #D1D4D7",
"E.	c #A9B1BA",
"F.	c #5E5F60",
"G.	c #373737",
"H.	c #4C4C4C",
"I.	c #424242",
"J.	c #E6E6E6",
"K.	c #86A6B9",
"L.	c #8BAFC4",
"M.	c #7F8487",
"N.	c #E2E2E2",
"O.	c #B9BFC5",
"P.	c #616161",
"Q.	c #787878",
"R.	c #9F9F9F",
"S.	c #8B8B8B",
"T.	c #414141",
"U.	c #464646",
"V.	c #CDCDCD",
"W.	c #848688",
"X.	c #85A7BA",
"Y.	c #89AEC3",
"Z.	c #3A3A3A",
"`.	c #939393",
" +	c #646464",
".+	c #484848",
"++	c #292929",
"@+	c #7D7D7D",
"#+	c #808384",
"$+	c #84A7BB",
"%+	c #87ACC2",
"&+	c #7E8386",
"*+	c #E1E1E1",
"=+	c #B8BEC4",
"-+	c #6D6D6D",
";+	c #4B4B4B",
">+	c #626262",
",+	c #777777",
"'+	c #B8B8B8",
")+	c #868686",
"!+	c #787C7E",
"~+	c #7395A9",
"{+	c #7598AD",
"]+	c #777C80",
"^+	c #C1C5C9",
"/+	c #C4C8CC",
"(+	c #9FA8B1",
"_+	c #6E7072",
":+	c #636363",
"<+	c #999999",
"[+	c #3E3E3E",
"}+	c #6E6E6E",
"|+	c #CECECE",
"1+	c #797C7E",
"2+	c #7CA0B5",
"3+	c #7DA2B8",
"4+	c #D4D5D7",
"5+	c #D8D9DB",
"6+	c #AFB5BD",
"7+	c #89898A",
"8+	c #4D4D4D",
"9+	c #777A7B",
"0+	c #81A8BE",
"a+	c #7D8285",
"b+	c #E0E0E0",
"c+	c #82878A",
"d+	c #4F4F4F",
"e+	c #656565",
"f+	c #DFDFDF",
"g+	c #E3E3E3",
"h+	c #75787A",
"i+	c #7FA6BD",
"j+	c #2D2E2E",
"k+	c #666666",
"l+	c #222222",
"m+	c #DADADA",
"n+	c #D1D1D1",
"o+	c #76797B",
"p+	c #7CA5BC",
"q+	c #C0C0C0",
"r+	c #676767",
"s+	c #494949",
"t+	c #2D2D2D",
"u+	c #797979",
"v+	c #717577",
"w+	c #6D93AB",
"x+	c #767C7F",
"y+	c #AEB2B6",
"z+	c #2E2E2F",
"A+	c #686868",
"B+	c #4A4A4A",
"C+	c #2F2F2F",
"D+	c #303131",
"E+	c #BCC0C3",
"F+	c #777778",
"G+	c #D0D0D0",
"H+	c #727678",
"I+	c #7299B2",
"J+	c #787E82",
"K+	c #CED0D2",
"L+	c #D2D4D6",
"M+	c #C3C5C7",
"N+	c #313132",
"O+	c #696969",
"P+	c #323233",
"Q+	c #C9CBCD",
"R+	c #D7D7D7",
"S+	c #737779",
"T+	c #76A0B9",
"U+	c #7B8184",
"V+	c #DDDDDD",
"W+	c #D8D8D8",
"X+	c #383838",
"Y+	c #6B6B6B",
"Z+	c #313131",
"`+	c #7A7A7A",
" @	c #D3D3D3",
".@	c #AEAEAE",
"+@	c #727679",
"@@	c #749EB7",
"#@	c #7B8084",
"$@	c #DCDCDC",
"%@	c #DBDBDB",
"&@	c #6C6C6C",
"*@	c #D6D6D6",
"=@	c #ACACAC",
"-@	c #D4D4D4",
";@	c #717679",
">@	c #729DB6",
",@	c #DEDEDE",
"'@	c #D9D9D9",
")@	c #6A6A6A",
"!@	c #ABABAB",
"~@	c #6B7073",
"{@	c #6086A0",
"]@	c #72787C",
"^@	c #B1B7BD",
"/@	c #B4BAC0",
"(@	c #B3B9BF",
"_@	c #434547",
":@	c #2F3030",
"<@	c #A6ABB0",
"[@	c #A1A6AB",
"}@	c #9BA0A5",
"|@	c #646566",
"1@	c #949494",
"2@	c #D5D5D5",
"3@	c #6F7478",
"4@	c #6D9AB4",
"5@	c #7A8083",
"6@	c #2D2E2F",
"7@	c #BBBBBB",
"8@	c #A1A1A1",
"9@	c #A9A9A9",
"0@	c #6E7477",
"a@	c #6B98B3",
"b@	c #797F83",
"c@	c #A8A8A8",
"d@	c #8D8D8D",
"e@	c #94999F",
"f@	c #BFBFBF",
"g@	c #696E71",
"h@	c #676969",
"i@	c #7E7E7E",
"j@	c #242424",
"k@	c #626263",
"l@	c #9E9E9E",
"m@	c #A2A2A2",
"n@	c #A7A7A7",
"o@	c #A5A5A5",
"p@	c #888888",
"q@	c #CCCCCC",
"r@	c #A3A3A3",
"s@	c #B4B4B4",
"t@	c #848484",
"u@	c #9D9D9D",
"v@	c #909090",
"w@	c #8A8A8A",
"x@	c #959595",
"y@	c #9C9C9C",
"z@	c #8F8F8F",
"                                                                                                ",
"                                                                                                ",
"                                                                                                ",
"              . + + + + + + + + + + + + + + + + + + + + + + + + + + + + + + + + @               ",
"              . # # # # # # # # # # # # # # # # # # # # # # # # # # # # # # # # .               ",
"              + $ $ $ $ $ $ $ $ $ $ $ $ $ $ $ $ $ $ $ $ $ $ $ $ $ $ $ $ $ $ $ $ .               ",
"              + $ $ $ $ $ $ $ $ $ $ $ $ $ $ $ $ $ $ $ $ $ $ $ $ $ $ $ $ $ $ $ $ +               ",
"              + % % % % % % % % % % % % % % % % % % % % % % % % % % % % % % % % +               ",
"              + % % % & * = = = = - ; > > > > > > > > > , > > > > > > ' ) % % % !               ",
"              + ~ ~ ~ { ] $ $ $ $ ^ / ( ( ( ( ( ( ( ( ( _ ( ( ( ( ( ( : < ~ ~ ~ .               ",
"              + ~ ~ ~ [ ] ~ ~ ~ ~ } | 1 1 1 1 1 1 1 1 1 2 1 1 1 1 1 1 3 4 ~ ~ ~ +               ",
"              + 5 5 5 6 7 5 5 5 5 8 | 1 1 1 1 1 1 1 1 1 2 1 1 1 1 1 1 9 0 5 5 5 @               ",
"              @ 5 5 5 a b c c c c d e f f f f f f f f f g f f f f f f h ! 5 5 5 +               ",
"              + i i i j k l l l l m n i i i i i i i i i o i i i i i i p q i i i @         r s t ",
"              @ u u u v w x x x x y z u u u u u u u u u A u u u u u u B ] u u u @     C D E F G ",
"              0 u u u H I J J J J y z u u u u u u u u u A u u u u u u K L u u u 0   M N O F P Q ",
"              R S S S T U V V V V W X Y Y Y Y Y Y Y Y Y Z Y Y Y Y Y Y `  .S S S [ ..+.@.F P #.  ",
"              $.S S S %.&.*.*.*.*.=.-.;.;.;.;.;.;.;.;.;.>.;.;.;.;.;.;.,.a S S + G '.).F #.+.!.  ",
"              $.~.~.~.{.].^.^.^.^./.(.~.~.~.~.~.~.~.~.~._.~.~.~.~.~.~.:.j ~.B <.[.}.F #.|.1.    ",
"              4 ~.~.~.2.3.4.4.4.4.5.(.~.~.~.~.~.~.~.~.~._.~.~.~.~.~.~.6.v 7.<.+.8.F 9.0.a.      ",
"              4 n n n b.c.d.d.d.d.5.e.n n n n n n n n n _.n n n n n n + f.g.h.i.j.9.'.k.l.      ",
"              m.n n n n.o.p.p.p.p.q.r.s.s.s.s.s.s.s.s.s.t.s.s.s.s.s.s.u.G v.w.j.9.'.x.l.        ",
"              m.z z z y.z.A.A.A.A.B.C.D.D.D.D.D.D.D.D.D.E.D.D.D.D.D.F.G.H.f.F I.[.9.l.          ",
"              m.J.J.J.8 K.L.L.L.L.M.N.J.J.J.J.J.J.J.J.J.O.J.J.J.J.P.Q.R.S.T.I.[.U.!.            ",
"            B V.J.J.J.W.X.Y.Y.Y.Y.W N.J.J.J.J.J.J.J.J.J.O.J.J.J.i.Z.8.6.`. ++..+++@+            ",
"            B V.(.(.(.#+$+%+%+%+%+&+*+(.(.(.(.(.(.(.(.(.=+(.(.-+<.;+>+P ,+'+@...)+[             ",
"            [ V.(.(.(.!+~+{+{+{+{+]+^+/+/+/+/+/+/+/+/+/+(+/+_+g.H.:+P I.[.<+[+}+|+B             ",
"            B |+e.e.e.1+2+3+3+3+3+B.4+5+5+5+5+5+5+5+5+5+6+7+r 8+ +U.I.E ;+s h.e.V.B             ",
"             .< e.e.e.9+0+0+0+0+0+a+b+e.e.e.e.e.e.e.e.e.c+Q d+e+N I.d+H...G.f+e.<  .            ",
"            6 < g+g+g+h+i+i+i+i+i+a+f+g+g+g+g+g+g+g+g+B j+E k+.+T.d+8+t l+m+g+g+< 6             ",
"             .n+g+g+g+o+p+p+p+p+p+a+f+g+g+g+g+g+g+g+q+a.h.r+s+T.v.v.t+G u+g+g+g+n+6             ",
"            6 n+N.N.N.v+w+w+w+w+w+x+^+/+/+/+/+/+/+y+z++.A+B+T.8+d+C+D+E+F+N.N.N.G+p             ",
"            p ) *+*+*+H+I+I+I+I+I+J+K+L+L+L+L+L+M+N++.O+;+T.8+h.Q P+Q+L+u+*+b+R+G+ .            ",
"            p ) *+*+*+S+T+T+T+T+T+U+V+*+*+*+*+W+X++.Y+H.T.H.+.Z+k.R+*+*+`+ @@ 6.:..@            ",
"            a  @b+b+b++@@@@@@@@@@@#@$@b+b+b+%@[+h.&@8+T.;+[.r k.*@b+$@< Y+6.6.6.L H             ",
"            =@-@b+b+b+;@>@>@>@>@>@#@$@b+b+,@P E -+v.T.;+'.G k.*@'@m.6.6.)@6.6.6.L 7.            ",
"            !@-@f+f+f+~@{@{@{@{@{@]@^@/@(@_@E Y+d+T.B+0.k.:@<@[@}@}@}@}@|@q+q+q+L 1@            ",
"            j 2@f+f+f+3@4@4@4@4@4@5@%@f+w.E O+h.T.s+|.<.6@7 q+q+q+q+q+q+)@q+q+q+7@8@            ",
"            9@*@,@,@,@0@a@a@a@a@a@b@m+L c@d@0.T.s+O X+k.e@f@f@f@f@f@f@f@O+f@+ ) 2@j             ",
"            9@R+,@,@,@|@g@g@g@g@g@h@,+9@-@G+i@B+@.D j@:+k@k+k+k+k+k+k+k+}.2@,@,@R+c@            ",
"            v R+V+V+V+V+V+V+V+V+V+V+q 6.V+l@m@i@Z.<.{ :.:.:.:.:.:.f@$.*@V+V+V+V+R+n@            ",
"            H W+$@$@$@$@$@$@$@$@$@|+ .e.o@H m.p@<.K q q q q q f@q@'@$@$@$@$@$@$@W+o@            ",
"            r@m+$@$@$@$@$@$@$@$@$@s@u a r@@ ] t@K q q q q 6.V.m+$@$@$@$@$@$@$@$@'@r@            ",
"            8@m+%@%@%@%@%@%@%@%@. g+s@m@] r@H 7 7 7 7 6.G+m+%@%@%@%@%@%@%@%@%@%@'@m@            ",
"            l@T T T T T T T T T { 7@T u@v@w@w@w@w@v@7.T T T T T T T T T T T T T T l@            ",
"                              1@] x@t@                                                          ",
"                              y@z@                                                              ",
"                                                                                                "};
