/* XPM */
static char * plus_xpm[] = {
"48 48 342 2",
"  	c None",
". 	c #3968A6",
"+ 	c #3465A4",
"@ 	c #7598C3",
"# 	c #92AED1",
"$ 	c #91AED1",
"% 	c #90ADD1",
"& 	c #90ADD0",
"* 	c #8FACD0",
"= 	c #8EACD0",
"- 	c #7396C3",
"; 	c #3768A6",
"> 	c #8EABCF",
", 	c #96B2D3",
"' 	c #9EB7D6",
") 	c #9EB6D5",
"! 	c #9DB6D5",
"~ 	c #87A6CB",
"{ 	c #8AA9CD",
"] 	c #8AA8CD",
"^ 	c #9BB5D5",
"/ 	c #7C9DC7",
"( 	c #789BC6",
"_ 	c #779AC6",
": 	c #779AC5",
"< 	c #7597C4",
"[ 	c #86A5CC",
"} 	c #98B2D3",
"| 	c #7498C4",
"1 	c #6F94C2",
"2 	c #6F94C1",
"3 	c #6E93C1",
"4 	c #6F93C1",
"5 	c #82A2CA",
"6 	c #3364A3",
"7 	c #82A2C9",
"8 	c #95AFD1",
"9 	c #7094C2",
"0 	c #6B91BF",
"a 	c #6A90BF",
"b 	c #6A8FBE",
"c 	c #7E9FC7",
"d 	c #3263A2",
"e 	c #7E9EC7",
"f 	c #91ADD0",
"g 	c #6B90BF",
"h 	c #668DBD",
"i 	c #668CBD",
"j 	c #658CBC",
"k 	c #658BBC",
"l 	c #7A9CC6",
"m 	c #3262A0",
"n 	c #8EAACD",
"o 	c #6289BB",
"p 	c #6189BB",
"q 	c #6088BA",
"r 	c #6188BA",
"s 	c #7698C4",
"t 	c #31619F",
"u 	c #3363A2",
"v 	c #7698C3",
"w 	c #8AA7CC",
"x 	c #5D85B8",
"y 	c #5C85B8",
"z 	c #5C84B8",
"A 	c #7396C1",
"B 	c #305F9E",
"C 	c #3262A1",
"D 	c #7295C1",
"E 	c #87A5CA",
"F 	c #5E85B8",
"G 	c #5882B6",
"H 	c #5881B6",
"I 	c #5781B6",
"J 	c #5880B5",
"K 	c #6F92C0",
"L 	c #2F5E9D",
"M 	c #84A2C8",
"N 	c #5983B6",
"O 	c #547EB4",
"P 	c #537EB4",
"Q 	c #527DB3",
"R 	c #537EB3",
"S 	c #6A8EBE",
"T 	c #2E5D9B",
"U 	c #3566A3",
"V 	c #3162A0",
"W 	c #3161A0",
"X 	c #31609F",
"Y 	c #30609F",
"Z 	c #3665A1",
"` 	c #6B90BE",
" .	c #82A1C8",
"..	c #4F7AB1",
"+.	c #4E7AB1",
"@.	c #658BBB",
"#.	c #32619D",
"$.	c #2D5B9A",
"%.	c #2D5B99",
"&.	c #2C5B99",
"*.	c #2C5A98",
"=.	c #2B5998",
"-.	c #2B5997",
";.	c #2B5896",
">.	c #2B5A97",
",.	c #3465A3",
"'.	c #5A83B5",
").	c #698FBD",
"!.	c #698EBD",
"~.	c #698DBC",
"{.	c #688DBC",
"].	c #678CBC",
"^.	c #7194C1",
"/.	c #4B77B0",
"(.	c #4A77AF",
"_.	c #4A76AF",
":.	c #4976AF",
"<.	c #4975AE",
"[.	c #547EB3",
"}.	c #5F86B8",
"|.	c #5D85B7",
"1.	c #5C83B6",
"2.	c #5B83B6",
"3.	c #5A83B6",
"4.	c #5982B6",
"5.	c #5881B5",
"6.	c #5780B5",
"7.	c #4873AB",
"8.	c #2A5896",
"9.	c #7496C2",
"0.	c #7E9EC6",
"a.	c #7E9EC5",
"b.	c #7D9DC5",
"c.	c #7C9DC5",
"d.	c #7C9CC5",
"e.	c #7B9CC4",
"f.	c #7093C0",
"g.	c #527CB3",
"h.	c #4674AD",
"i.	c #4673AD",
"j.	c #4573AD",
"k.	c #4572AC",
"l.	c #4472AC",
"m.	c #4371AC",
"n.	c #5D84B7",
"o.	c #7697C2",
"p.	c #7597C2",
"q.	c #7497C1",
"r.	c #7496C1",
"s.	c #7395C0",
"t.	c #547DB3",
"u.	c #527CB1",
"v.	c #285593",
"w.	c #648ABB",
"x.	c #7B9CC5",
"y.	c #517CB2",
"z.	c #4D79B0",
"A.	c #4C78B0",
"B.	c #4C78AF",
"C.	c #4B77AF",
"D.	c #4A76AE",
"E.	c #4976AE",
"F.	c #4874AE",
"G.	c #4371AB",
"H.	c #4270AB",
"I.	c #4170AB",
"J.	c #416FAA",
"K.	c #406EAA",
"L.	c #3F6EAA",
"M.	c #3F6EA9",
"N.	c #4270AA",
"O.	c #4170AA",
"P.	c #406FAA",
"Q.	c #3E6DA9",
"R.	c #3C6CA7",
"S.	c #4C77AF",
"T.	c #275492",
"U.	c #6087B9",
"V.	c #7899C2",
"W.	c #3D6CA9",
"X.	c #3D6CA8",
"Y.	c #3C6BA8",
"Z.	c #3B6BA8",
"`.	c #3B6AA7",
" +	c #3A6AA7",
".+	c #3A69A7",
"++	c #3969A6",
"@+	c #3868A6",
"#+	c #3767A5",
"$+	c #3667A5",
"%+	c #3566A5",
"&+	c #3565A4",
"*+	c #3566A4",
"=+	c #4874AD",
"-+	c #275390",
";+	c #5C84B6",
">+	c #3F6DA9",
",+	c #3C6CA8",
"'+	c #3969A7",
")+	c #3466A4",
"!+	c #3667A6",
"~+	c #3769A6",
"{+	c #26528F",
"]+	c #577FB4",
"^+	c #7194C0",
"/+	c #406EA9",
"(+	c #3666A5",
"_+	c #3768A7",
":+	c #3869A7",
"<+	c #396AA8",
"[+	c #3A6BA8",
"}+	c #4A77B0",
"|+	c #25508E",
"1+	c #2D5C9A",
"2+	c #527CB2",
"3+	c #4F79B0",
"4+	c #396AA6",
"5+	c #3667A4",
"6+	c #3668A6",
"7+	c #3769A7",
"8+	c #386AA8",
"9+	c #3B6CA9",
"0+	c #3B6DA9",
"a+	c #3C6DAA",
"b+	c #4C79B1",
"c+	c #244F8D",
"d+	c #2C5C99",
"e+	c #4470A9",
"f+	c #4E79B0",
"g+	c #4E79B1",
"h+	c #4F7AB0",
"i+	c #4371AD",
"j+	c #3A6BA9",
"k+	c #4473AD",
"l+	c #4D7AB2",
"m+	c #4E7AB2",
"n+	c #4E7AB3",
"o+	c #4D7BB2",
"p+	c #4D7AB3",
"q+	c #4C7AB3",
"r+	c #3F6CA6",
"s+	c #25508D",
"t+	c #2B5A98",
"u+	c #2A5795",
"v+	c #295795",
"w+	c #295694",
"x+	c #4F7BB3",
"y+	c #5680B6",
"z+	c #3E6FAB",
"A+	c #3C6DAB",
"B+	c #3C6EAB",
"C+	c #3D6EAB",
"D+	c #4E7BB3",
"E+	c #295593",
"F+	c #25518F",
"G+	c #25518E",
"H+	c #24508D",
"I+	c #244F8C",
"J+	c #234F8C",
"K+	c #234E8C",
"L+	c #234E8B",
"M+	c #254F8D",
"N+	c #507CB4",
"O+	c #7297C2",
"P+	c #4373AE",
"Q+	c #3E6FAC",
"R+	c #3F70AD",
"S+	c #4071AD",
"T+	c #507DB4",
"U+	c #265390",
"V+	c #527EB6",
"W+	c #4576B0",
"X+	c #4172AE",
"Y+	c #4172AF",
"Z+	c #4173AF",
"`+	c #4374AF",
" @	c #527FB6",
".@	c #5380B7",
"+@	c #769AC5",
"@@	c #4878B2",
"#@	c #4374B0",
"$@	c #4375B1",
"%@	c #4475B1",
"&@	c #4576B1",
"*@	c #5280B7",
"=@	c #5481B8",
"-@	c #789CC7",
";@	c #4A7BB4",
">@	c #4577B2",
",@	c #4677B3",
"'@	c #4678B3",
")@	c #4779B3",
"!@	c #5482B9",
"~@	c #224D8A",
"{@	c #5583BA",
"]@	c #7A9EC8",
"^@	c #4D7DB6",
"/@	c #4879B4",
"(@	c #487AB5",
"_@	c #497AB5",
":@	c #4A7BB5",
"<@	c #5584BB",
"[@	c #214C89",
"}@	c #5785BB",
"|@	c #7C9FCA",
"1@	c #4F80B8",
"2@	c #4A7CB6",
"3@	c #4B7CB7",
"4@	c #4B7DB7",
"5@	c #5785BC",
"6@	c #204A87",
"7@	c #5886BD",
"8@	c #7DA2CB",
"9@	c #5182BA",
"0@	c #4D7EB8",
"a@	c #4D7FB9",
"b@	c #4E7FB9",
"c@	c #5887BE",
"d@	c #5988BE",
"e@	c #7FA2CD",
"f@	c #5484BC",
"g@	c #4F81BA",
"h@	c #5081BB",
"i@	c #5082BB",
"j@	c #5988BF",
"k@	c #204B88",
"l@	c #5B89C0",
"m@	c #6591C3",
"n@	c #5384BD",
"o@	c #5283BD",
"p@	c #5284BD",
"q@	c #5484BD",
"r@	c #5B8BC1",
"s@	c #214C86",
"t@	c #4977AF",
"u@	c #5C8BC1",
"v@	c #5D8CC1",
"w@	c #5C8CC2",
"x@	c #5D8CC2",
"y@	c #5C8BC2",
"z@	c #214B85",
"A@	c #224B86",
"                                                                                                ",
"                                                                                                ",
"                                                                                                ",
"                                                                                                ",
"                                                                                                ",
"                                                                                                ",
"                                                                                                ",
"                                          . + + + + + + .                                       ",
"                                        . @ # $ % & * = - ;                                     ",
"                                        + > , ' ) ! ! ~ { +                                     ",
"                                        + ] ^ / ( _ : < [ +                                     ",
"                                        + [ } | 1 2 3 4 5 6                                     ",
"                                        + 7 8 9 0 a a b c d                                     ",
"                                        + e f g h i j k l m                                     ",
"                                        6 l n h o p q r s t                                     ",
"                                        u v w o x y y z A B                                     ",
"                                        C D E F G H I J K L                                     ",
"                                        t K M N O P Q R S T                                     ",
"                    U u d C C V W t X Y Z `  .P ....+.+.@.#.$.%.&.*.*.=.-.-.;.>.                ",
"                  ,.'.` ` b ).!.!.~.{.].{.^.A /.(._.:.<.[.}.}.|.|.1.2.3.4.5.6.7.8.              ",
"                  V {.9.0.a.b.c.c.c.d.e.c.f.g.h.i.j.k.l.m.n.o.p.p.q.r.r.s.s.t.u.v.              ",
"                  X w.x.y.z.A.B.C.(.D.E.F.G.H.H.I.J.K.L.M.J.G.N.O.J.P.M.M.Q.R.S.T.              ",
"                  B U.V.E.m.G.H.I.J.P.K.L.Q.Q.W.X.Y.Z.`. +.+++@+@+#+#+$+%+&+*+=+-+              ",
"                  L ;+r.l.>+Q.Q.X.,+Y.`. + +'+++@+; #+$+%+*++ + )+%+%+%+$+!+~+E.{+              ",
"                  T ]+^+/+ +'+++@+@+#+$+(+%+&++ + %+%+%+$+!+!+; ; _+:+:+:+<+[+}+|+              ",
"                  1+2+3+4+$+5+*+*+$+$+$+$+!+!+6+; _+7+:+:+8+[+[+[+9+9+0+a+a+a+b+c+              ",
"                  d+e+f+f+f+g+g+h+..g+..g+i+<+<+<+j+j+j+k+l+l+m+n+l+o+l+p+q+p+r+s+              ",
"                    t+-.;.8.u+u+v+w+w+v.-.x+y+z+a+A+B+C+D+E+F+G+|+H+c+I+J+K+L+M+                ",
"                                        T.N+O+P+Q+R+R+S+T+|+                                    ",
"                                        U+V+| W+X+Y+Z+`+ @I+                                    ",
"                                        {+.@+@@@#@$@%@&@*@L+                                    ",
"                                        |+=@-@;@>@,@'@)@!@~@                                    ",
"                                        c+{@]@^@/@(@_@:@<@[@                                    ",
"                                        L+}@|@1@2@3@3@4@5@6@                                    ",
"                                        ~@7@8@9@0@a@a@b@c@6@                                    ",
"                                        [@d@e@f@g@h@i@i@j@6@                                    ",
"                                        k@l@m@n@o@p@p@q@r@6@                                    ",
"                                        s@t@u@v@w@x@y@w@t@s@                                    ",
"                                          z@6@6@6@6@6@6@A@                                      ",
"                                                                                                ",
"                                                                                                ",
"                                                                                                ",
"                                                                                                ",
"                                                                                                ",
"                                                                                                ",
"                                                                                                ",
"                                                                                                ",
"                                                                                                "};
