/* XPM */
static char * songs_xpm[] = {
"48 48 144 2",
"  	c None",
". 	c #000000",
"+ 	c #1C7100",
"@ 	c #1A6600",
"# 	c #171717",
"$ 	c #1A1A1A",
"% 	c #131313",
"& 	c #1B1B1B",
"* 	c #1A1A1A",
"= 	c #131313",
"- 	c #000000",
"; 	c #060606",
"> 	c #030303",
", 	c #0B0B0B",
"' 	c #000000",
") 	c #398A15",
"! 	c #398A17",
"~ 	c #3B8917",
"{ 	c #3B8717",
"] 	c #090909",
"^ 	c #090909",
"/ 	c #0A0A0A",
"( 	c #328010",
"_ 	c #8D8D8B",
": 	c #8C8C8C",
"< 	c #4D9821",
"[ 	c #4D961E",
"} 	c #4C971F",
"| 	c #4D9820",
"1 	c #439118",
"2 	c #44911A",
"3 	c #46931B",
"4 	c #47941C",
"5 	c #49961C",
"6 	c #4A961E",
"7 	c #E5E4E3",
"8 	c #E5E4E3",
"9 	c #E4E4E2",
"0 	c #E5E3E2",
"a 	c #9BD268",
"b 	c #9DD269",
"c 	c #6BB42F",
"d 	c #6CB42F",
"e 	c #77AF58",
"f 	c #7CB94C",
"g 	c #89D03C",
"h 	c #8CD23E",
"i 	c #90D541",
"j 	c #93D24E",
"k 	c #93D844",
"l 	c #94D350",
"m 	c #96D552",
"n 	c #96DA46",
"o 	c #99D754",
"p 	c #9ADD49",
"q 	c #9CDE4C",
"r 	c #9DDA57",
"s 	c #A0DD5A",
"t 	c #A2DE5C",
"u 	c #A7DC6B",
"v 	c #B2E577",
"w 	c #C4C1B9",
"x 	c #C4EC95",
"y 	c #C6EC97",
"z 	c #C7C4BC",
"A 	c #C8C4BD",
"B 	c #C8C4BE",
"C 	c #C9C5BE",
"D 	c #C9C6BE",
"E 	c #C9C7BF",
"F 	c #C9C7C0",
"G 	c #C9C7C1",
"H 	c #CAC6BE",
"I 	c #CAC7BF",
"J 	c #CAC7C0",
"K 	c #CBC7C1",
"L 	c #CBC8C1",
"M 	c #CCC8C1",
"N 	c #CCC9C1",
"O 	c #CDC9C1",
"P 	c #CDCAC2",
"Q 	c #CDCAC3",
"R 	c #CDCAC4",
"S 	c #CECBC4",
"T 	c #CFCCC4",
"U 	c #CFCDC5",
"V 	c #CFCDC6",
"W 	c #CFCDC7",
"X 	c #D0CCC5",
"Y 	c #D0CDC6",
"Z 	c #D0CDC7",
"` 	c #D0CEC7",
" .	c #D1CEC7",
"..	c #D1CFC8",
"+.	c #E1E1E1",
"@.	c #E2E1DF",
"#.	c #E2E1E1",
"$.	c #E3E2E0",
"%.	c #E4E3E1",
"&.	c #E5E4E2",
"*.	c #E6E5E3",
"=.	c #E7E6E3",
"-.	c #E7E6E4",
";.	c #E7E7E5",
">.	c #E8E7E5",
",.	c #E8E8E6",
"'.	c #E9E8E7",
").	c #E9E9E7",
"!.	c #EAE9E7",
"~.	c #EAE9E8",
"{.	c #EBEAE8",
"].	c #EBEAE9",
"^.	c #ECEBE9",
"/.	c #ECECEA",
"(.	c #ECECEB",
"_.	c #EDECEA",
":.	c #EDEDEB",
"<.	c #EDEDEC",
"[.	c #EEEDEB",
"}.	c #EEEEEC",
"|.	c #EFEEEC",
"1.	c #EFEFED",
"2.	c #F0F0EE",
"3.	c #F1F0EE",
"4.	c #F1F0EF",
"5.	c #F1F1EF",
"6.	c #F1F1F0",
"7.	c #F2F1F0",
"8.	c #F2F2F0",
"9.	c #F3F2F1",
"0.	c #F3F3F1",
"a.	c #F3F3F2",
"b.	c #F4F3F2",
"c.	c #F4F4F2",
"d.	c #F4F4F3",
"e.	c #F5F4F3",
"f.	c #F5F5F4",
"g.	c #F6F5F5",
"h.	c #F6F6F5",
"i.	c #F7F7F6",
"j.	c #F8F8F7",
"k.	c #F9F9F8",
"l.	c #FAFAF9",
"m.	c #FAFAFA",
"                                                                                                ",
"                                                                                                ",
"                                                                                                ",
"                                                                                                ",
"                                                                                                ",
"            < | | | | | | | | | | | | | | | | | | | | | | | | | | | | | | | | | | <             ",
"          b x y y y y y y y y y y y y y y y y y y y y y y y y y y y y y y y y y y x a           ",
"        } v q p p p p p p p p p p p p p p p p p p p p p p p p p p p p p p p p p p q v [         ",
"        6 t n n n n n n n n n n n n n n n n n n n n n n n n n n n n n n n n n n n n t 6         ",
"        5 s k k k c d k k k k k k k k k k k k k k k k k k k k k k k k k k c d k k k s 5         ",
"        4 r i i i f f i i i i i i i i i i i i i i i i i i i i i i i i i i f f i i i r 4         ",
"        3 o h h h u u h h h h h h h h h h h h h h h h h h h h h h h h h h u u h h h o 3         ",
"        2 m g g g g g g g g g g g g g g g g g g g g g g g g g g g g g g g g g g g g m 2         ",
"        1 j l l l l l l l l l l l l l l l l l l l l l l l l l l l l l l l l l l l l j 1         ",
"        ( e e e e e e e e e e e e e e e e e e e e e e e e e e e e e e e e e e e e e e (         ",
"          #.+.+.+.+.+.+.+.+.+.+.+.+.+.+.+.+.+.+.+.+.+.+.+.+.+.+.+.+.+.+.+.+.+.+.+.+.#.          ",
"          m.k.k.k.k.k.k.k.k.k.k.k.k.k.k.k.k.k.k.k.k.k.k.k.k.k.k.k.k.k.k.k.k.k.k.k.k.m.          ",
"          l.j.j.j.j.j.j.j.j.j.j.j.j.j.j.j.j.j.j.j.j.j.j.j.j.j.j.j.j.j.j.j.j.j.j.j.j.l.          ",
"          k.i.i.i.i.i.i.i.i.i.i.i.i.i.i.i.i.i.i.i.i.i.i.i.i.i.i.i.i.i.i.i.i.i.i.i.i.k.          ",
"          j.h.h.h.Z Z Z Z Z Z Z Z Z Z Z Z Z Z Z Z Z Z Z Z Z Z Z Z Z Z Z Z Z ` h.h.h.j.          ",
"          i.f.f.f. .i.i.i.i.i...h.i.i.i. .i.i.i.i.i. .i.i.i.i.h...i.i.i.i.h...f.f.f.i.          ",
"          h.d.d.d.Z d.d.d.d.d.` a.d.d.d.Z d.d.d.d.d.Z d.d.d.d.a.` d.d.d.d.a.` d.d.d.h.          ",
"          g.b.b.b.Z b.b.b.b.b.Z 9.b.b.b.Z b.b.b.b.b.Z b.b.b.b.9.Z b.b.b.b.9.Z b.b.b.g.          ",
"          f.9.9.9.Y 9.9.9.9.9.W 7.9.9.9.Y 9.9.9.9.9.Y 9.9.9.9.7.W 9.9.9.9.7.W 9.9.9.f.          ",
"          e.7.7.7.X Q Q Q Q Q X Q Q Q Q X Q Q Q Q Q X Q Q Q Q Q X Q Q Q Q Q V 7.7.7.e.          ",
"          c.5.5.5.T c.c.c.c.c.T c.c.c.c.T c.c.c.c.c.T c.c.c.c.0.U c.c.c.c.c.T 5.5.5.c.          ",
"          0.2.2.2.S 2.2.2.2.2.S 2.2.2.2.S 2.2.2.2.2.S 2.2.2.2.2.S 2.2.2.2.2.S 2.2.2.0.          ",
"          8.1.1.1.R 1.1.1.1.1.R 1.1.1.1.R 1.1.1.1.1.R 1.1.1.1.1.R 1.1.1.1.1.R 1.1.1.8.          ",
"          6.}.}.}.Q }.}.}.}.}.Q }.}.}.}.Q }.}.}.}.}.Q }.}.}.}.}.Q }.}.}.}.}.Q }.}.}.6.          ",
"          4.[.[.[.P I I I I I P I I I I P I I I I I P I I I I I P I I I I I P [.[.[.4.          ",
"          2._._._.O 3.3.3.3.3.O 3.3.3.3.O 3.3.3.3.3.O 3.3.3.3.3.O 3.3.3.3.3.O _._._.2.          ",
"          1.^.^.^.M ^.^.^.^.{.N ^.^.^.^.M ^.^.^.^.^.M ^.^.^.^.^.M ^.^.^.^.^.M ^.^.^.1.          ",
"          |.{.{.{.K {.{.{.{.!.L {.{.{.{.K {.{.{.{.{.K {.{.{.{.{.K {.{.{.{.{.K {.{.{.|.          ",
"          [.!.!.!.J z z z z z J z z z z J z z z z z J z z z z z J z z z z z J !.!.!.[.          ",
"          :.).).).J <.<.<.<.(.G <.<.<.<.J <.<.<.<.<.J <.<.<.<.<.G (.<.<.<.<.J ).).).:.          ",
"          /.,.,.,.I ,.,.,.,.;.F ,.,.,.,.I ,.,.,.,.,.I ,.,.,.,.,.F ;.,.,.,.,.I ,.,.,./.          ",
"          ^.>.>.>.H >.>.>.>.-.E >.>.>.>.H >.>.>.>.>.H >.>.>.>.>.E -.>.>.>.>.E -.>.>.^.          ",
"          ].-.-.-.C -.-.-.-.=.D -.-.-.-.C -.-.-.-.-.C -.-.-.-.-.D *.-.-.-.-.D *.-.-.].          ",
"          ~.*.*.*.B w w w w w A w w w w B w w w w w B w w w w w A w w w w w B &.*.*.~.          ",
"          '.&.&.&.~.~.~.~.~.~.~.~.~.~.~.~.~.~.~.~.~.~.~.~.~.~.~.~.~.~.~.~.~.~.&.&.&.'.          ",
"          ,.%.%.%.%.%.%.%.%.%.%.%.%.%.%.%.%.%.%.%.%.%.%.%.%.%.%.%.%.%.%.%.%.%.%.%.%.,.          ",
"          ;.$.$.$.$.$.$.$.$.$.$.$.$.$.$.$.$.$.$.$.$.$.$.$.$.$.$.$.$.$.$.$.$.$.$.$.$.;.          ",
"          8 @.@.@.@.@.@.@.@.@.@.@.@.@.@.@.@.@.@.@.@.@.@.@.@.@.@.@.@.@.@.@.@.@.@.@.@.7           ",
"          : 0 ^.^.^.^.^.^.^.^.^.^.^.^.^.^.^.^.^.^.^.^.^.^.^.^.^.^.^.^.^.^.^.^.^.^.9 _           ",
"                                                                                                ",
"                                                                                                ",
"                                                                                                ",
"                                                                                                "};
